<?xml version="1.0" encoding="UTF-8"?>
<svg version="1.1" xmlns="http://www.w3.org/2000/svg" width="1200" height="1200">
<path d="M0 0 C396 0 792 0 1200 0 C1200 396 1200 792 1200 1200 C804 1200 408 1200 0 1200 C0 804 0 408 0 0 Z " fill="#101622" transform="translate(0,0)"/>
<path d="M0 0 C2.99485994 1.53103941 5.92989897 3.14077105 8.859375 4.79345703 C9.91656738 5.37812744 10.97375977 5.96279785 12.06298828 6.56518555 C19.51671523 10.72283476 26.81963161 15.08109549 33.98828125 19.71142578 C37.71764733 22.08387303 41.5369565 24.23925325 45.44140625 26.30908203 C48.71007999 28.94532399 50.14442089 32.07207587 50.64750671 36.24713135 C50.77255254 39.15190796 50.80132011 42.04222936 50.79296875 44.94970703 C50.7982106 46.01459351 50.80345245 47.07947998 50.80885315 48.17663574 C50.81526108 50.42243581 50.81395233 52.6682695 50.80541992 54.9140625 C50.79690339 58.34452149 50.82570087 61.77331832 50.85742188 65.20361328 C50.85903391 67.3898107 50.85845632 69.57601106 50.85546875 71.76220703 C50.86670273 72.78423218 50.87793671 73.80625732 50.88951111 74.85925293 C50.83105735 80.84858257 50.32710745 84.28172173 46.359375 88.85595703 C44.38671875 90.54345703 44.38671875 90.54345703 42.296875 91.85595703 C41.51054687 92.35095703 40.72421875 92.84595703 39.9140625 93.35595703 C36.36022216 95.44261558 32.75100913 97.4125204 29.1171875 99.35595703 C23.94625939 102.16847317 18.9391107 105.26075814 13.93359375 108.35595703 C11.42756832 109.89074772 8.90222409 111.38298815 6.359375 112.85595703 C5.37582031 113.43216797 4.39226562 114.00837891 3.37890625 114.60205078 C-3.24764873 118.23867728 -7.21149696 119.58942024 -14.640625 117.85595703 C-14.640625 117.19595703 -14.640625 116.53595703 -14.640625 115.85595703 C-15.37796875 115.56720703 -16.1153125 115.27845703 -16.875 114.98095703 C-24.97816836 111.68475295 -32.45808933 107.2799144 -39.94897461 102.80029297 C-43.64556971 100.59466197 -47.355245 98.44710061 -51.15234375 96.41845703 C-52.23588135 95.83402832 -52.23588135 95.83402832 -53.34130859 95.23779297 C-54.70884557 94.50485639 -56.08259488 93.78334798 -57.46337891 93.07568359 C-61.7323472 90.77249831 -64.78402845 88.36918482 -66.640625 83.85595703 C-67.22101868 80.00963824 -67.20138353 76.20882225 -67.171875 72.32470703 C-67.1757019 71.21542847 -67.17952881 70.1061499 -67.18347168 68.96325684 C-67.1861877 66.62328176 -67.17884836 64.28327616 -67.16210938 61.94335938 C-67.14069689 58.36796176 -67.16192324 54.79457363 -67.1875 51.21923828 C-67.18485667 48.94189011 -67.17973159 46.66454318 -67.171875 44.38720703 C-67.17997192 43.32143433 -67.18806885 42.25566162 -67.19641113 41.15759277 C-67.12000106 35.0899492 -66.72957572 31.45514403 -62.640625 26.85595703 C-60.17578125 25.15673828 -60.17578125 25.15673828 -57.640625 23.85595703 C-56.89683594 23.39576172 -56.15304687 22.93556641 -55.38671875 22.46142578 C-50.8566496 19.67899752 -46.28990735 17.13533004 -41.515625 14.79345703 C-37.4866034 12.81473703 -33.68286553 10.721286 -29.91796875 8.28564453 C-26.76881703 6.30864705 -23.55290136 4.45631941 -20.328125 2.60595703 C-19.71662598 2.25227051 -19.10512695 1.89858398 -18.47509766 1.53417969 C-11.88523645 -2.23328326 -7.0413603 -3.05064852 0 0 Z " fill="#C262F8" transform="translate(354.640625,542.14404296875)"/>
<path d="M0 0 C6.66059694 5.22305803 11.26479713 12.5754561 12.52099609 20.98168945 C13.41305752 32.93761299 12.08716259 42.21383427 4.51171875 51.890625 C0.67583554 56.08805123 -3.59032745 58.60286707 -8.8125 60.75 C-9.740625 61.1625 -10.66875 61.575 -11.625 62 C-20.11178606 63.99689084 -27.29311374 63.13969576 -34.8125 58.75 C-36.7925 57.43 -38.7725 56.11 -40.8125 54.75 C-41.1425 64.65 -41.4725 74.55 -41.8125 84.75 C-47.0925 84.75 -52.3725 84.75 -57.8125 84.75 C-57.8125 55.05 -57.8125 25.35 -57.8125 -5.25 C-52.5325 -5.25 -47.2525 -5.25 -41.8125 -5.25 C-41.8125 -2.61 -41.8125 0.03 -41.8125 2.75 C-41.33941406 2.35167969 -40.86632812 1.95335937 -40.37890625 1.54296875 C-27.81545215 -8.52248863 -13.58572655 -8.8277298 0 0 Z " fill="#EEEFF0" transform="translate(654.8125,576.25)"/>
<path d="M0 0 C4.95 0 9.9 0 15 0 C15 30.36 15 60.72 15 92 C10.05 92 5.1 92 0 92 C-0.495 88.535 -0.495 88.535 -1 85 C-1.4846875 85.39832031 -1.969375 85.79664063 -2.46875 86.20703125 C-10.65222292 92.67512234 -17.48523117 95.06802373 -28 94 C-37.0394393 92.35781054 -44.1585541 87.02008561 -49.375 79.5625 C-50.28105401 78.05996043 -51.15868118 76.5397213 -52 75 C-52.51046875 74.09701172 -52.51046875 74.09701172 -53.03125 73.17578125 C-56.42142903 65.94026026 -56.11933531 56.71132657 -54.30859375 49.08984375 C-50.78350041 39.54701784 -44.76122519 32.11399467 -35.5 27.8125 C-26.42984186 24.00840407 -18.5787499 23.96080228 -9.45703125 27.63671875 C-7 29 -7 29 -1 34 C-0.67 22.78 -0.34 11.56 0 0 Z " fill="#F4F5F5" transform="translate(750,545)"/>
<path d="M0 0 C0.95896364 2.87689091 1.14216969 4.75095155 1.17700195 7.7434082 C1.19625481 9.18554436 1.19625481 9.18554436 1.21589661 10.65681458 C1.22328354 11.69432358 1.23067047 12.73183258 1.23828125 13.80078125 C1.246353 14.86991257 1.25442474 15.93904388 1.26274109 17.04057312 C1.27657591 19.30429464 1.28730076 21.56803697 1.29516602 23.83178711 C1.31238124 27.28865174 1.35627416 30.74456061 1.40039062 34.20117188 C1.41051753 36.40103464 1.41903364 38.60090553 1.42578125 40.80078125 C1.44328934 41.83221756 1.46079742 42.86365387 1.47883606 43.92634583 C1.46067392 49.95364497 1.00655892 53.40328073 -3 58 C-4.97265625 59.6875 -4.97265625 59.6875 -7.0625 61 C-7.84882813 61.495 -8.63515625 61.99 -9.4453125 62.5 C-12.99828866 64.58615114 -16.60501282 66.55708899 -20.2421875 68.4921875 C-22.91144221 69.95158172 -25.4819108 71.51516536 -28.0625 73.125 C-33.99376515 76.71970615 -39.96986292 80 -47 80 C-47 80.66 -47 81.32 -47 82 C-60.57875679 85.37960169 -60.57875679 85.37960169 -67 82 C-68.37195574 80.70644173 -69.71182656 79.37701298 -71 78 C-71.66 77.67 -72.32 77.34 -73 77 C-73 76.34 -73 75.68 -73 75 C-74.11375 74.814375 -74.11375 74.814375 -75.25 74.625 C-77.82930049 74.03879534 -79.7482162 73.36715445 -82 72 C-82.495 71.01 -82.495 71.01 -83 70 C-85.11846285 69.31270746 -85.11846285 69.31270746 -87.5625 68.875 C-88.38878906 68.70742188 -89.21507812 68.53984375 -90.06640625 68.3671875 C-91.02353516 68.18542969 -91.02353516 68.18542969 -92 68 C-92 66.68 -92 65.36 -92 64 C-92.78375 63.773125 -93.5675 63.54625 -94.375 63.3125 C-97 62 -97 62 -98.3125 59.375 C-98.539375 58.59125 -98.76625 57.8075 -99 57 C-97.1875 55.4375 -97.1875 55.4375 -95 54 C-94.01 54.33 -93.02 54.66 -92 55 C-92 55.66 -92 56.32 -92 57 C-88.04 57 -84.08 57 -80 57 C-80 56.01 -80 55.02 -80 54 C-80 53.67 -80 53.34 -80 53 C-79.14888641 52.9845388 -79.14888641 52.9845388 -78.28057861 52.96876526 C-72.37573972 52.86059679 -66.47105024 52.74600715 -60.56640625 52.62768555 C-58.362662 52.5843699 -56.15888492 52.54269241 -53.95507812 52.50268555 C-50.78765976 52.44490156 -47.62040614 52.38123024 -44.453125 52.31640625 C-43.46757629 52.29969376 -42.48202759 52.28298126 -41.46661377 52.26576233 C-40.08563507 52.2358445 -40.08563507 52.2358445 -38.67675781 52.20532227 C-37.46430389 52.18200584 -37.46430389 52.18200584 -36.22735596 52.15821838 C-34.04193269 52.00297865 -32.10291419 51.59991191 -30 51 C-30.14029419 48.8537974 -30.28738164 46.70803782 -30.4375 44.5625 C-30.51871094 43.36753906 -30.59992188 42.17257812 -30.68359375 40.94140625 C-30.67656114 38.11429756 -30.67656114 38.11429756 -32 37 C-33.70563778 36.84259395 -35.41727244 36.74906608 -37.12890625 36.68359375 C-38.68061523 36.62075195 -38.68061523 36.62075195 -40.26367188 36.55664062 C-41.35228516 36.51732422 -42.44089844 36.47800781 -43.5625 36.4375 C-44.65498047 36.39431641 -45.74746094 36.35113281 -46.87304688 36.30664062 C-49.58189564 36.20017932 -52.29083992 36.09816484 -55 36 C-53.70616258 32.6061062 -52.6246972 30.22689454 -50 27.6875 C-49.484375 27.17574219 -48.96875 26.66398438 -48.4375 26.13671875 C-47 25 -47 25 -45 25 C-44.773125 24.443125 -44.54625 23.88625 -44.3125 23.3125 C-42.62632969 20.34162851 -40.44612884 18.39177042 -38 16 C-36.73184452 14.70503362 -35.48263788 13.39131907 -34.25 12.0625 C-33.65703125 11.43472656 -33.0640625 10.80695312 -32.453125 10.16015625 C-30.64868979 7.47775659 -30.45261 5.16908016 -30 2 C-25.7533062 1.2707968 -21.50236996 0.57027146 -17.25 -0.125 C-16.0434375 -0.33253906 -14.836875 -0.54007813 -13.59375 -0.75390625 C-12.43359375 -0.94082031 -11.2734375 -1.12773438 -10.078125 -1.3203125 C-9.00981445 -1.49836426 -7.94150391 -1.67641602 -6.84082031 -1.85986328 C-3.79722171 -2.01000299 -2.44537698 -1.78755213 0 0 Z " fill="#D072F6" transform="translate(404,573)"/>
<path d="M0 0 C6.91276819 5.78016775 11.17819995 13.77418696 12.07421875 22.734375 C12.18957001 25.73852316 12.28898841 28.73391658 12.07421875 31.734375 C11.07421875 32.734375 11.07421875 32.734375 9.01780701 32.85462952 C8.1140181 32.85240891 7.21022919 32.85018829 6.27905273 32.84790039 C5.25806992 32.84782486 4.2370871 32.84774933 3.18516541 32.84767151 C2.07476395 32.84251022 0.96436249 32.83734894 -0.1796875 32.83203125 C-1.31027084 32.8306163 -2.44085419 32.82920135 -3.60569763 32.82774353 C-7.2332519 32.82212519 -10.86074549 32.80956958 -14.48828125 32.796875 C-16.94075432 32.79186236 -19.39322835 32.78729905 -21.84570312 32.78320312 C-27.8724167 32.7721498 -33.89909464 32.75539384 -39.92578125 32.734375 C-39.46816406 33.83265625 -39.01054688 34.9309375 -38.5390625 36.0625 C-38.28165283 36.6802832 -38.02424316 37.29806641 -37.7590332 37.93457031 C-36.00229493 41.72908381 -33.75213277 44.14988246 -30.36328125 46.546875 C-23.78130444 48.82064881 -17.40476781 48.67482303 -10.98828125 45.921875 C-8.05818458 44.45159435 -5.48997822 42.78573258 -2.92578125 40.734375 C-0.92578125 40.734375 -0.92578125 40.734375 1.51171875 43.109375 C2.78015625 44.40875 2.78015625 44.40875 4.07421875 45.734375 C5.06421875 46.394375 6.05421875 47.054375 7.07421875 47.734375 C4.748259 53.17336169 0.17662964 56.27836989 -5.08984375 58.75 C-15.17428611 62.6024836 -25.23167224 63.77698858 -35.27148438 59.32836914 C-42.52006528 55.75399305 -47.97995469 52.00300288 -51.92578125 44.734375 C-52.35246094 43.99832031 -52.77914062 43.26226563 -53.21875 42.50390625 C-57.22621742 34.33852041 -57.12263297 24.61559339 -55.3359375 15.8359375 C-52.3469873 7.10324429 -45.81497777 -0.10060203 -37.67578125 -4.328125 C-24.88559517 -10.20074312 -11.23235507 -7.91949642 0 0 Z " fill="#F2F4F5" transform="translate(834.92578125,577.265625)"/>
<path d="M0 0 C17.16 0 34.32 0 52 0 C52 12 52 12 50.41796875 14.8671875 C49.31388672 15.86105469 49.31388672 15.86105469 48.1875 16.875 C44.30472037 20.67271091 40.91292172 24.50784085 37.625 28.8125 C33.41688408 34.26304049 29.06009968 39.55299257 24.52783203 44.73754883 C22.18390044 47.45150606 20.62658549 49.74682903 19 53 C30.55 53 42.1 53 54 53 C54 56.96 54 60.92 54 65 C35.85 65 17.7 65 -1 65 C-1 53 -1 53 0.6171875 50.09765625 C1.36226563 49.42605469 2.10734375 48.75445313 2.875 48.0625 C6.57065006 44.4478188 9.85070174 40.76616943 12.9375 36.625 C17.06149129 31.16378191 21.36168671 25.88712064 25.7734375 20.65625 C27.88661873 18.13526187 29.94505559 15.56868051 32 13 C21.44 12.67 10.88 12.34 0 12 C0 8.04 0 4.08 0 0 Z " fill="#F6F7F8" transform="translate(450,572)"/>
<path d="M0 0 C1.01775513 -0.00315216 2.03551025 -0.00630432 3.08410645 -0.009552 C4.19137085 -0.00752777 5.29863525 -0.00550354 6.43945312 -0.00341797 C7.56766479 -0.00437469 8.69587646 -0.00533142 9.85827637 -0.00631714 C12.24910538 -0.00699915 14.63993624 -0.00514344 17.03076172 -0.00097656 C20.70479464 0.00437137 24.37870529 -0.0009209 28.05273438 -0.00732422 C30.3691409 -0.00666344 32.68554734 -0.00538229 35.00195312 -0.00341797 C36.66284973 -0.00645432 36.66284973 -0.00645432 38.3572998 -0.009552 C39.37505493 -0.00639984 40.39281006 -0.00324768 41.44140625 0 C42.79256531 0.00119339 42.79256531 0.00119339 44.17102051 0.00241089 C46.22070312 0.12939453 46.22070312 0.12939453 47.22070312 1.12939453 C47.78320312 4.19189453 47.78320312 4.19189453 47.22070312 8.12939453 C45.44478619 10.38123958 43.49298909 12.22290221 41.37304688 14.15283203 C39.44032394 15.92771008 37.80963429 17.72255239 36.15820312 19.75439453 C33.657223 22.76103731 30.91856156 25.1779551 27.83398438 27.57470703 C25.81082386 29.52438714 24.58251718 31.68553486 23.22070312 34.12939453 C24.2501001 34.11368408 24.2501001 34.11368408 25.30029297 34.09765625 C28.39872601 34.05617579 31.49710073 34.03009384 34.59570312 34.00439453 C35.6759375 33.98763672 36.75617188 33.97087891 37.86914062 33.95361328 C38.90039062 33.94716797 39.93164062 33.94072266 40.99414062 33.93408203 C42.4237915 33.91837158 42.4237915 33.91837158 43.88232422 33.90234375 C46.22070312 34.12939453 46.22070312 34.12939453 48.22070312 36.12939453 C48.41601562 39.16845703 48.41601562 39.16845703 48.34570312 42.75439453 C48.32765625 43.94291016 48.30960937 45.13142578 48.29101562 46.35595703 C48.2678125 47.27119141 48.24460937 48.18642578 48.22070312 49.12939453 C45.72217399 50.3786591 44.0314264 50.256362 41.23608398 50.25878906 C39.67953346 50.2635173 39.67953346 50.2635173 38.09153748 50.26834106 C36.40557213 50.26530472 36.40557213 50.26530472 34.68554688 50.26220703 C33.53655411 50.26316376 32.38756134 50.26412048 31.20375061 50.2651062 C28.77181951 50.26578758 26.3398866 50.2639362 23.90795898 50.25976562 C20.17036894 50.25441196 16.43289881 50.25971457 12.6953125 50.26611328 C10.33789036 50.26545259 7.98046829 50.26417161 5.62304688 50.26220703 C4.49704575 50.26423126 3.37104462 50.26625549 2.21092224 50.26834106 C1.17637405 50.2651889 0.14182587 50.26203674 -0.92407227 50.25878906 C-1.83959366 50.25799347 -2.75511505 50.25719788 -3.69837952 50.25637817 C-5.77929688 50.12939453 -5.77929688 50.12939453 -6.77929688 49.12939453 C-7.27929688 46.56689453 -7.27929688 46.56689453 -6.77929688 43.12939453 C-2.32405109 36.89771169 3.64960224 31.60659712 9.09570312 26.25439453 C10.61621129 24.75931293 12.13455724 23.26202809 13.65039062 21.76220703 C14.31280762 21.1113916 14.97522461 20.46057617 15.65771484 19.79003906 C17.30614765 18.19796938 17.30614765 18.19796938 18.22070312 16.12939453 C10.63070313 16.12939453 3.04070312 16.12939453 -4.77929688 16.12939453 C-6.21246585 13.26305658 -5.91130049 10.75703952 -5.90429688 7.56689453 C-5.906875 6.38998047 -5.90945313 5.21306641 -5.91210938 4.00048828 C-5.69652317 -0.65997816 -4.21730075 0.00372486 0 0 Z " fill="#151927" transform="translate(325.779296875,574.87060546875)"/>
<path d="M0 0 C5.28 0 10.56 0 16 0 C22.80874573 15.49236347 29.02400142 31.16877982 35 47 C37.57351527 44.42648473 38.19328619 42.12477909 39.4375 38.6875 C39.95862061 37.26395101 40.48085731 35.84081035 41.00390625 34.41796875 C41.30699707 33.59087402 41.61008789 32.7637793 41.92236328 31.91162109 C43.95134361 26.42960491 46.03596284 20.9684693 48.11306763 15.50454712 C48.87342135 13.50415323 49.63301142 11.50347106 50.39233398 9.50268555 C51.59453347 6.33498862 52.79721562 3.16747488 54 0 C59.28 0 64.56 0 70 0 C65.04911039 15.67781711 58.16461348 30.6720115 51.58178711 45.71411133 C50.51415589 48.15593544 49.45026264 50.59936225 48.38671875 53.04296875 C48.06072189 53.78459763 47.73472504 54.5262265 47.39884949 55.29032898 C45.98935393 58.53218056 44.86039644 61.55841425 44 65 C38.39 65 32.78 65 27 65 C26.55011719 63.93007813 26.10023438 62.86015625 25.63671875 61.7578125 C23.85000916 57.51011864 22.06074691 53.26350307 20.27099609 49.01708984 C19.40348514 46.9577928 18.53665259 44.89820987 17.67041016 42.83837891 C16.28199185 39.53735871 14.8916446 36.23716132 13.5 32.9375 C12.80366455 31.28645264 12.80366455 31.28645264 12.09326172 29.60205078 C8.92122196 22.1080374 5.66976505 14.65427654 2.28515625 7.25366211 C0 2.20949438 0 2.20949438 0 0 Z " fill="#F3F5F5" transform="translate(850,572)"/>
<path d="M0 0 C7.19902921 4.6777833 11.69906217 11.71818815 13.9609375 19.90234375 C15.62870708 31.06272567 14.68704442 41.57785116 7.9609375 50.90234375 C3.79985344 56.21766792 -0.83505949 59.35152433 -7.0390625 61.90234375 C-7.9671875 62.31484375 -8.8953125 62.72734375 -9.8515625 63.15234375 C-19.35910635 65.38941289 -26.72615959 63.76312735 -34.9296875 58.74609375 C-36.32367831 57.83413715 -37.68589714 56.87384708 -39.0390625 55.90234375 C-38.7090625 55.24234375 -38.3790625 54.58234375 -38.0390625 53.90234375 C-38.28662695 51.82872387 -38.28662695 51.82872387 -39.0390625 49.90234375 C-39.6990625 49.57234375 -40.3590625 49.24234375 -41.0390625 48.90234375 C-40.3790625 48.90234375 -39.7190625 48.90234375 -39.0390625 48.90234375 C-38.7090625 48.24234375 -38.3790625 47.58234375 -38.0390625 46.90234375 C-37.7090625 47.23234375 -37.3790625 47.56234375 -37.0390625 47.90234375 C-36.20375 47.31453125 -36.20375 47.31453125 -35.3515625 46.71484375 C-34.5884375 46.44671875 -33.8253125 46.17859375 -33.0390625 45.90234375 C-32.28625 46.3715625 -31.5334375 46.84078125 -30.7578125 47.32421875 C-26.09790151 50.02910961 -21.27312769 49.51332412 -16.0390625 48.90234375 C-10.67471883 47.29044081 -7.06736986 44.6777515 -4.0390625 39.90234375 C-1.16132449 33.77151059 -0.99554154 27.11144508 -2.62109375 20.5546875 C-5.03393477 14.8365848 -9.39308732 11.31070504 -15.0390625 8.90234375 C-21.37141855 7.73433295 -26.45182575 8.88523591 -32.0390625 11.90234375 C-34.37785126 13.4656274 -34.37785126 13.4656274 -36.0390625 14.90234375 C-36.0390625 13.91234375 -36.0390625 12.92234375 -36.0390625 11.90234375 C-36.1628125 10.66484375 -36.1628125 10.66484375 -36.2890625 9.40234375 C-36.2065625 8.57734375 -36.1240625 7.75234375 -36.0390625 6.90234375 C-34.74170743 5.85608966 -33.40639278 4.85533152 -32.0390625 3.90234375 C-31.14324077 1.90573921 -31.14324077 1.90573921 -31.0390625 -0.09765625 C-31.3690625 -0.75765625 -31.6990625 -1.41765625 -32.0390625 -2.09765625 C-20.49918773 -6.78050398 -10.98805997 -5.91502845 0 0 Z " fill="#F4F5F6" transform="translate(653.0390625,575.09765625)"/>
<path d="M0 0 C5.27493457 3.11291205 8.91015279 7.04965926 11.99609375 12.33984375 C13.87127611 19.8405732 13.114619 26.08219179 9.26953125 32.81640625 C6.55926312 36.70156894 4.16580879 39.35128761 -0.31640625 41.08984375 C-6.81338615 41.98213283 -12.82403739 42.51321774 -18.640625 39.19140625 C-24.35631116 34.70229799 -27.571777 29.27206082 -28.60546875 22.078125 C-28.86372259 16.10307024 -27.48384011 10.81385321 -23.734375 6.1015625 C-17.36260149 -0.60337564 -9.04340944 -3.55331265 0 0 Z " fill="#151B26" transform="translate(738.31640625,583.91015625)"/>
<path d="M0 0 C4.95 0 9.9 0 15 0 C15.04629221 11.42194559 15.08185334 22.84386895 15.10362434 34.26588917 C15.11407207 39.56930156 15.12824932 44.87264988 15.15087891 50.17602539 C15.172572 55.29180724 15.18456117 60.40752738 15.18975449 65.52335167 C15.1934566 67.47743387 15.20068568 69.43151261 15.21146011 71.38556862 C15.22592806 74.11755359 15.22797991 76.84928186 15.22705078 79.58129883 C15.23783661 80.79941757 15.23783661 80.79941757 15.24884033 82.04214478 C15.23461315 85.89513058 15.18879643 87.71680535 13 91 C12.34 90.67 11.68 90.34 11 90 C10.505 90.495 10.505 90.495 10 91 C6.99668982 91.14193337 4.00782866 91.04236378 1 91 C1 88.03 1 85.06 1 82 C0.01 81.67 -0.98 81.34 -2 81 C-2 80.34 -2 79.68 -2 79 C-2.66 78.34 -3.32 77.68 -4 77 C-4 73.08190211 -3.72818311 72.12734461 -2 68.875 C0.73441231 62.99892249 1.15354664 57.18921719 -1.0625 51.0625 C-1.371875 50.381875 -1.68125 49.70125 -2 49 C-1.67 48.01 -1.34 47.02 -1 46 C-0.94394393 44.84724722 -0.94394393 44.84724722 -1.625 43.25 C-2 41 -2 41 -1.03564453 38.88208008 C0.31795967 35.11515466 0.24880471 31.5836346 0.1953125 27.63671875 C0.1924826 26.84473587 0.18965271 26.05275299 0.18673706 25.23677063 C0.17558863 22.72019001 0.15049422 20.20397211 0.125 17.6875 C0.11496329 15.97591662 0.10583864 14.26432763 0.09765625 12.55273438 C0.07566681 8.36835094 0.04117408 4.18423686 0 0 Z " fill="#F8FAFA" transform="translate(750,545)"/>
<path d="M0 0 C10.15881461 8.7413056 10.15881461 8.7413056 11.0078125 16.08203125 C11.25671823 22.67803308 10.73022585 27.95122357 6.6875 33.3125 C2.77946029 37.49892062 -1.50219117 39.98721526 -7.21484375 40.6484375 C-17.61916667 40.78234127 -17.61916667 40.78234127 -22.3125 36.3125 C-27.95842172 29.55874967 -29.74074674 25.55358785 -29.65234375 16.64453125 C-28.90707754 9.33749585 -24.45854993 5.01827442 -19.05859375 0.44140625 C-13.6003593 -3.08751938 -5.5889687 -2.84721047 0 0 Z " fill="#151B26" transform="translate(641.3125,584.6875)"/>
<path d="M0 0 C0 4.95 0 9.9 0 15 C-2.7534375 15.061875 -2.7534375 15.061875 -5.5625 15.125 C-10.79518552 15.56928462 -13.75378657 16.49839883 -17.59765625 20.0390625 C-21.66767459 25.73028592 -22.45551952 30.97706029 -22.51171875 37.77734375 C-22.52966995 38.58869278 -22.54762115 39.40004181 -22.56611633 40.23597717 C-22.61988463 42.80310008 -22.65400616 45.3700407 -22.6875 47.9375 C-22.72070276 49.68817623 -22.75519513 51.4388285 -22.79101562 53.18945312 C-22.87559126 57.45950314 -22.94256074 61.72950225 -23 66 C-27.95 66 -32.9 66 -38 66 C-38 44.55 -38 23.1 -38 1 C-33.05 1 -28.1 1 -23 1 C-22.67 3.97 -22.34 6.94 -22 10 C-21.29875 9.0925 -20.5975 8.185 -19.875 7.25 C-13.78270161 0.10847244 -9.11181607 -0.44447883 0 0 Z " fill="#F5F7F7" transform="translate(554,571)"/>
<path d="M0 0 C4.95 0 9.9 0 15 0 C15 21.78 15 43.56 15 66 C9.72 66 4.44 66 -1 66 C-1.02255381 57.54232269 -1.0409167 49.08466859 -1.05181217 40.62696934 C-1.05704031 36.70011342 -1.06413669 32.77327906 -1.07543945 28.84643555 C-1.0862708 25.05985743 -1.09227736 21.2733001 -1.09487724 17.48670769 C-1.09673105 16.03895681 -1.10035081 14.59120712 -1.10573006 13.14346504 C-1.11294367 11.12242865 -1.11340808 9.10137152 -1.11352539 7.08032227 C-1.115746 5.92782486 -1.11796661 4.77532745 -1.12025452 3.58790588 C-1 1 -1 1 0 0 Z " fill="#ECEDEE" transform="translate(565,571)"/>
<path d="M0 0 C2.99485994 1.53103941 5.92989897 3.14077105 8.859375 4.79345703 C9.91656738 5.37812744 10.97375977 5.96279785 12.06298828 6.56518555 C20.11048447 11.05403608 27.95783495 15.81004753 35.70214844 20.79980469 C39.53285861 23.24112057 43.44971296 25.54399342 47.359375 27.85595703 C45.09087491 30.12445713 44.32628386 30.22980941 41.25390625 30.70751953 C40.02510742 30.90087891 40.02510742 30.90087891 38.77148438 31.09814453 C37.91361328 31.22447266 37.05574219 31.35080078 36.171875 31.48095703 C34.91407227 31.68205078 34.91407227 31.68205078 33.63085938 31.88720703 C28.81486406 32.62408063 24.22974507 33.00094775 19.359375 32.85595703 C19.359375 34.83595703 19.359375 36.81595703 19.359375 38.85595703 C19.029375 38.85595703 18.699375 38.85595703 18.359375 38.85595703 C18.029375 37.20595703 17.699375 35.55595703 17.359375 33.85595703 C1.519375 33.52595703 -14.320625 33.19595703 -30.640625 32.85595703 C-30.640625 32.52595703 -30.640625 32.19595703 -30.640625 31.85595703 C-20.740625 31.36095703 -20.740625 31.36095703 -10.640625 30.85595703 C-10.310625 30.19595703 -9.980625 29.53595703 -9.640625 28.85595703 C-8.99996094 28.86755859 -8.35929687 28.87916016 -7.69921875 28.89111328 C-2.56112728 28.94471483 2.27321493 28.68635051 7.359375 27.85595703 C11.50844402 27.85595703 15.26926397 28.12882618 19.359375 28.85595703 C19.854375 27.37095703 19.854375 27.37095703 20.359375 25.85595703 C21.266875 26.04158203 22.174375 26.22720703 23.109375 26.41845703 C26.04251824 26.81330324 27.6238407 26.80287275 30.359375 25.85595703 C29.699375 23.87595703 29.039375 21.89595703 28.359375 19.85595703 C22.419375 18.86595703 22.419375 18.86595703 16.359375 17.85595703 C15.864375 16.37095703 15.864375 16.37095703 15.359375 14.85595703 C14.699375 14.52595703 14.039375 14.19595703 13.359375 13.85595703 C12.864375 12.37095703 12.864375 12.37095703 12.359375 10.85595703 C11.26625 10.75283203 10.173125 10.64970703 9.046875 10.54345703 C5.15147041 9.81719516 4.8273899 9.56364791 2.359375 6.85595703 C-1.08967994 3.82176483 -3.88516628 1.78204298 -8.609375 1.98095703 C-11.33544848 2.48682634 -13.97750799 3.08737363 -16.640625 3.85595703 C-17.300625 5.83595703 -17.960625 7.81595703 -18.640625 9.85595703 C-19.630625 9.85595703 -20.620625 9.85595703 -21.640625 9.85595703 C-21.640625 9.19595703 -21.640625 8.53595703 -21.640625 7.85595703 C-23.620625 8.18595703 -25.600625 8.51595703 -27.640625 8.85595703 C-27.640625 9.51595703 -27.640625 10.17595703 -27.640625 10.85595703 C-29.950625 11.18595703 -32.260625 11.51595703 -34.640625 11.85595703 C-32.46639893 9.49798151 -30.319058 7.95743116 -27.515625 6.41064453 C-26.72671875 5.97365234 -25.9378125 5.53666016 -25.125 5.08642578 C-24.30515625 4.63912109 -23.4853125 4.19181641 -22.640625 3.73095703 C-21.82078125 3.27591797 -21.0009375 2.82087891 -20.15625 2.35205078 C-13.01876358 -1.57823177 -7.85021557 -3.40108267 0 0 Z " fill="#844FE6" transform="translate(354.640625,542.14404296875)"/>
<path d="M0 0 C4.15281398 2.55557783 7.13209494 5.57024253 9.25 10 C9.25 11.98 9.25 13.96 9.25 16 C-2.96 16 -15.17 16 -27.75 16 C-26.57373141 10.11865707 -24.79606227 5.43008079 -19.9921875 1.59765625 C-13.52063559 -2.08353016 -7.03770808 -1.87672215 0 0 Z " fill="#1A2029" transform="translate(821.75,583)"/>
<path d="M0 0 C1.27039124 0.00141495 2.54078247 0.0028299 3.84967041 0.00428772 C7.18354301 0.0088962 10.51734347 0.01783799 13.85119629 0.0289917 C17.27058295 0.03932743 20.68997714 0.04381106 24.109375 0.04882812 C30.78647778 0.05978832 37.46354724 0.07647397 44.140625 0.09765625 C44.140625 0.42765625 44.140625 0.75765625 44.140625 1.09765625 C29.620625 1.42765625 15.100625 1.75765625 0.140625 2.09765625 C-0.519375 3.41765625 -1.179375 4.73765625 -1.859375 6.09765625 C-3.46270291 6.17887549 -5.06721526 6.23694759 -6.671875 6.28515625 C-7.56519531 6.31996094 -8.45851563 6.35476563 -9.37890625 6.390625 C-12.27585015 6.04846627 -13.08492528 5.34372052 -14.859375 3.09765625 C-16.509375 3.75765625 -18.159375 4.41765625 -19.859375 5.09765625 C-19.75323664 7.54990319 -19.75323664 7.54990319 -18.859375 10.09765625 C-16.38301488 11.4723225 -16.38301488 11.4723225 -13.859375 12.09765625 C-13.859375 13.41765625 -13.859375 14.73765625 -13.859375 16.09765625 C-10.559375 16.42765625 -7.259375 16.75765625 -3.859375 17.09765625 C-3.364375 18.58265625 -3.364375 18.58265625 -2.859375 20.09765625 C-0.9940505 21.11520493 -0.9940505 21.11520493 1.203125 21.78515625 C1.93660156 22.03652344 2.67007813 22.28789063 3.42578125 22.546875 C3.99167969 22.72863281 4.55757813 22.91039062 5.140625 23.09765625 C5.140625 23.75765625 5.140625 24.41765625 5.140625 25.09765625 C5.945 25.36578125 6.749375 25.63390625 7.578125 25.91015625 C8.42375 26.30203125 9.269375 26.69390625 10.140625 27.09765625 C10.635625 28.58265625 10.635625 28.58265625 11.140625 30.09765625 C18.04251471 30.9362036 24.25484688 31.11359073 31.140625 30.09765625 C31.140625 29.43765625 31.140625 28.77765625 31.140625 28.09765625 C34.110625 27.43765625 37.080625 26.77765625 40.140625 26.09765625 C34.58624872 30.74995317 27.81858684 35.82827923 20.359375 36.2578125 C17.890625 35.97265625 17.890625 35.97265625 14.140625 35.09765625 C14.140625 34.43765625 14.140625 33.77765625 14.140625 33.09765625 C13.40328125 32.80890625 12.6659375 32.52015625 11.90625 32.22265625 C3.80372652 28.9267145 -3.67400128 24.52116031 -11.16552734 20.04418945 C-14.87647062 17.83115511 -18.60119644 15.67280169 -22.40625 13.625 C-23.13312012 13.23086914 -23.85999023 12.83673828 -24.60888672 12.43066406 C-25.99020581 11.6862178 -27.37703687 10.95187849 -28.77001953 10.22949219 C-32.73768193 8.07944672 -34.92597617 6.20075821 -36.859375 2.09765625 C-35.27610173 1.95117231 -33.69275126 1.80552272 -32.109375 1.66015625 C-31.22765625 1.57894531 -30.3459375 1.49773438 -29.4375 1.4140625 C-28.25671875 1.30964844 -27.0759375 1.20523438 -25.859375 1.09765625 C-25.03860474 1.01640503 -24.21783447 0.93515381 -23.37219238 0.85144043 C-15.56461301 0.12391071 -7.83786031 -0.0335228 0 0 Z " fill="#8251E9" transform="translate(325.859375,624.90234375)"/>
<path d="M0 0 C17.82 0 35.64 0 54 0 C54 3.96 54 7.92 54 12 C53.67 12 53.34 12 53 12 C53 8.37 53 4.74 53 1 C35.84 1 18.68 1 1 1 C1 4.96 1 8.92 1 13 C11.89 13 22.78 13 34 13 C28 21 28 21 22 29 C21.34 28.34 20.68 27.68 20 27 C20 25.68 20 24.36 20 23 C19.1028125 22.566875 19.1028125 22.566875 18.1875 22.125 C16 21 16 21 13 19 C10.67612053 18.60612212 8.34206251 18.26513915 6 18 C6 17.34 6 16.68 6 16 C4.35 16.66 2.7 17.32 1 18 C1 17.34 1 16.68 1 16 C0.34 15.67 -0.32 15.34 -1 15 C-0.67 14.67 -0.34 14.34 0 14 C0 9.38 0 4.76 0 0 Z " fill="#3C4148" transform="translate(449,571)"/>
<path d="M0 0 C3.5386994 1.65139305 4.81070153 2.71605229 7 6 C7.46797583 10.21178243 7.46565795 12.28599114 5.125 15.875 C2.21289342 18.78710658 1.3997223 18.96068305 -2.8125 19.375 C-6.23041924 19.31907041 -6.97465048 19.0177986 -9.9375 16.9375 C-12.40599406 13.42176604 -13 11.28616677 -13 7 C-10.19300808 0.68426818 -6.70664014 -0.57815863 0 0 Z " fill="#F1F3F4" transform="translate(575,542)"/>
<path d="M0 0 C2.875 1.5 2.875 1.5 5 4 C5.72947266 7.14732157 5.6844417 9.84708002 5 13 C3.00772296 16.05067422 1.66317126 17.59426669 -1.9375 18.47265625 C-5.82131981 18.7595293 -7.67845169 18.20766662 -11 16.0625 C-13.34164141 12.47686159 -13.72420276 10.30065182 -13.5 6.08984375 C-13 4 -13 4 -10.625 1.5 C-6.39661961 -0.91621737 -4.82698554 -1.23040808 0 0 Z " fill="#F6F8F8" transform="translate(685,620)"/>
<path d="M0 0 C1.0390625 1.8671875 1.0390625 1.8671875 2 4 C1.375 6.125 1.375 6.125 0 8 C-0.639375 8.309375 -1.27875 8.61875 -1.9375 8.9375 C-4.71944543 10.3706234 -5.56938502 12.28183153 -7 15 C-6.34 15.33 -5.68 15.66 -5 16 C-6 18 -6 18 -9 19.4375 C-12.28917058 20.70863827 -12.28917058 20.70863827 -13 24 C-13.66 24 -14.32 24 -15 24 C-15 24.66 -15 25.32 -15 26 C-13.95199219 25.98839844 -12.90398437 25.97679687 -11.82421875 25.96484375 C-10.44531428 25.95546345 -9.06640789 25.9463635 -7.6875 25.9375 C-6.99720703 25.92912109 -6.30691406 25.92074219 -5.59570312 25.91210938 C-2.4516975 25.89692094 -0.00579981 25.99806673 3 27 C4.6835443 40.52848101 4.6835443 40.52848101 3 46 C-2.1935222 46.85989986 -7.17786339 47.15340488 -12.4375 47.125 C-13.14970703 47.12886719 -13.86191406 47.13273438 -14.59570312 47.13671875 C-19.47682485 47.12785204 -24.1672618 46.68649945 -29 46 C-29 45.67 -29 45.34 -29 45 C-28.23333008 44.97494385 -27.46666016 44.9498877 -26.67675781 44.92407227 C-23.20100717 44.80798577 -19.72551908 44.68531634 -16.25 44.5625 C-15.0434375 44.52318359 -13.836875 44.48386719 -12.59375 44.44335938 C-10.85351562 44.38051758 -10.85351562 44.38051758 -9.078125 44.31640625 C-8.00981445 44.27974854 -6.94150391 44.24309082 -5.84082031 44.20532227 C-3.41688848 44.03013091 -1.32113288 43.68801513 1 43 C0.85970581 40.8537974 0.71261836 38.70803782 0.5625 36.5625 C0.48128906 35.36753906 0.40007812 34.17257812 0.31640625 32.94140625 C0.32343886 30.11429756 0.32343886 30.11429756 -1 29 C-2.70563778 28.84259395 -4.41727244 28.74906608 -6.12890625 28.68359375 C-7.16337891 28.64169922 -8.19785156 28.59980469 -9.26367188 28.55664062 C-10.35228516 28.51732422 -11.44089844 28.47800781 -12.5625 28.4375 C-13.65498047 28.39431641 -14.74746094 28.35113281 -15.87304688 28.30664062 C-18.58189564 28.20017932 -21.29083992 28.09816484 -24 28 C-22.70616258 24.6061062 -21.6246972 22.22689454 -19 19.6875 C-18.484375 19.17574219 -17.96875 18.66398438 -17.4375 18.13671875 C-16 17 -16 17 -14 17 C-13.773125 16.443125 -13.54625 15.88625 -13.3125 15.3125 C-11.62632969 12.34162851 -9.44612884 10.39177042 -7 8 C-4.63268418 5.36255478 -2.31242917 2.68561658 0 0 Z " fill="#E27EF3" transform="translate(373,581)"/>
<path d="M0 0 C0 0.99 0 1.98 0 3 C-0.639375 3.103125 -1.27875 3.20625 -1.9375 3.3125 C-2.618125 3.539375 -3.29875 3.76625 -4 4 C-4.33 4.99 -4.66 5.98 -5 7 C-5.66 7 -6.32 7 -7 7 C-7 8.65 -7 10.3 -7 12 C-7.74765625 12.19335938 -8.4953125 12.38671875 -9.265625 12.5859375 C-10.25046875 12.84632813 -11.2353125 13.10671875 -12.25 13.375 C-13.22453125 13.63023437 -14.1990625 13.88546875 -15.203125 14.1484375 C-17.69586338 14.90739974 -19.80281079 15.60543699 -22 17 C-23.80211911 21.80565097 -24.57142291 26.81374249 -25.4375 31.86328125 C-26 34 -26 34 -28 36 C-27.70514846 37.85266073 -27.70514846 37.85266073 -27 40 C-26.20461893 44.06528103 -25.90139214 47.85846987 -26 52 C-26.66 51.67 -27.32 51.34 -28 51 C-28 49.35 -28 47.7 -28 46 C-28.66 46 -29.32 46 -30 46 C-30.14564235 41.62535204 -30.23419143 37.2513304 -30.3125 32.875 C-30.35439453 31.6375 -30.39628906 30.4 -30.43945312 29.125 C-30.57763878 18.84398731 -30.57763878 18.84398731 -27.82421875 15.31640625 C-25.09559382 13.07840544 -22.70864986 11.51256292 -19.5 10.0625 C-14.83462105 7.87487828 -10.27324369 5.58841849 -5.75 3.125 C-4.65171875 2.52945313 -3.5534375 1.93390625 -2.421875 1.3203125 C-1.62265625 0.88460937 -0.8234375 0.44890625 0 0 Z " fill="#CD79EB" transform="translate(319,554)"/>
<path d="M0 0 C0.680625 0.7425 1.36125 1.485 2.0625 2.25 C4.11262664 4.32355666 6.12378374 5.74123683 8.6875 7.125 C12 9 12 9 14 12 C12.35 12.66 10.7 13.32 9 14 C10.36983503 17.16115776 10.9890638 17.9927092 14 20 C14 20.33 14 20.66 14 21 C17.3 21.33 20.6 21.66 24 22 C24 22.33 24 22.66 24 23 C15.26285828 23.98292844 9.0769819 23.2071051 1.3125 19.25 C0.62994141 18.90259766 -0.05261719 18.55519531 -0.75585938 18.19726562 C-4.30786464 16.26597432 -6.89968876 14.4926524 -9 11 C-8.401875 10.7525 -7.80375 10.505 -7.1875 10.25 C-4.71222841 8.83555909 -3.66569196 7.27139812 -2 5 C-1.34 5 -0.68 5 0 5 C0 3.35 0 1.7 0 0 Z " fill="#EAECED" transform="translate(796,616)"/>
<path d="M0 0 C0.33 0 0.66 0 1 0 C1.00586624 0.61752136 1.01173248 1.23504272 1.01777649 1.87127686 C1.08168344 8.29534683 1.16609622 14.71891458 1.26245117 21.14257812 C1.29571677 23.54029725 1.32374355 25.93809499 1.34643555 28.3359375 C1.3799508 31.78159099 1.43226655 35.22652295 1.48828125 38.671875 C1.49467117 39.74491882 1.5010611 40.81796265 1.50764465 41.92352295 C1.52743881 42.92425842 1.54723297 43.9249939 1.56762695 44.95605469 C1.57873001 45.83541687 1.58983307 46.71477905 1.60127258 47.62078857 C2.07689803 50.45885149 3.20676823 51.79676939 5 54 C5 54.66 5 55.32 5 56 C5.72074707 56.27545654 6.44149414 56.55091309 7.18408203 56.8347168 C11.93369971 58.80020363 16.36801312 61.3506254 20.875 63.8125 C22.32712891 64.59463867 22.32712891 64.59463867 23.80859375 65.39257812 C27.9815842 67.6664321 32.04882286 69.93188239 35.88671875 72.7421875 C38.5567565 74.67855114 40.91182932 76.05568295 43.9375 77.3125 C44.70964844 77.63863281 45.48179687 77.96476563 46.27734375 78.30078125 C46.84582031 78.53152344 47.41429687 78.76226563 48 79 C48 79.33 48 79.66 48 80 C38.44705882 79.01176471 38.44705882 79.01176471 34 77 C33.690625 76.34 33.38125 75.68 33.0625 75 C32.0801565 72.60943937 32.0801565 72.60943937 28.6875 71.8125 C27.470625 71.544375 26.25375 71.27625 25 71 C23.63875 70.690625 23.63875 70.690625 22.25 70.375 C19.8869757 69.91780051 19.8869757 69.91780051 17 70 C17 69.34 17 68.68 17 68 C17.99 67.505 17.99 67.505 19 67 C15.07739423 63.33890128 11.09564524 61.74598423 6.109375 60.02734375 C5.41328125 59.68832031 4.7171875 59.34929688 4 59 C3.505 57.515 3.505 57.515 3 56 C2.01 56 1.02 56 0 56 C0 37.52 0 19.04 0 0 Z M24 73 C26 74 26 74 26 74 Z " fill="#251544" transform="translate(287,576)"/>
<path d="M0 0 C0 16.83 0 33.66 0 51 C-0.33 51 -0.66 51 -1 51 C-1 45.06 -1 39.12 -1 33 C-1.99 32.505 -1.99 32.505 -3 32 C-2.99476318 31.23856689 -2.98952637 30.47713379 -2.98413086 29.69262695 C-2.96330475 26.23259308 -2.95032187 22.77257241 -2.9375 19.3125 C-2.92493164 17.51522461 -2.92493164 17.51522461 -2.91210938 15.68164062 C-2.90888672 14.52470703 -2.90566406 13.36777344 -2.90234375 12.17578125 C-2.89710693 11.11270752 -2.89187012 10.04963379 -2.88647461 8.9543457 C-2.99283156 6.1865491 -3.37105212 3.69207103 -4 1 C-4.845625 1.2165625 -5.69125 1.433125 -6.5625 1.65625 C-12.89918796 3.21161886 -18.48895805 4.2456997 -25 4 C-25.99 4.495 -25.99 4.495 -27 5 C-27.47001033 8.27555608 -27.47001033 8.27555608 -27.625 12.0625 C-27.69976562 13.35285156 -27.77453125 14.64320313 -27.8515625 15.97265625 C-27.90054687 16.97167969 -27.94953125 17.97070312 -28 19 C-30.64 19 -33.28 19 -36 19 C-36 18.01 -36 17.02 -36 16 C-35.38125 15.731875 -34.7625 15.46375 -34.125 15.1875 C-31.7004767 14.04443152 -31.7004767 14.04443152 -30 11 C-29.75892674 8.71351152 -29.75892674 8.71351152 -29.875 6.3125 C-29.89304687 5.50425781 -29.91109375 4.69601562 -29.9296875 3.86328125 C-29.95289063 3.24839844 -29.97609375 2.63351562 -30 2 C-25.7533062 1.2707968 -21.50236996 0.57027146 -17.25 -0.125 C-15.44015625 -0.43630859 -15.44015625 -0.43630859 -13.59375 -0.75390625 C-12.43359375 -0.94082031 -11.2734375 -1.12773438 -10.078125 -1.3203125 C-9.00981445 -1.49836426 -7.94150391 -1.67641602 -6.84082031 -1.85986328 C-4 -2 -4 -2 0 0 Z " fill="#E090F7" transform="translate(404,573)"/>
<path d="M0 0 C0.99 0.66 1.98 1.32 3 2 C3 2.66 3 3.32 3 4 C3.33 4.99 3.66 5.98 4 7 C4.66 7.33 5.32 7.66 6 8 C6 10.97 6 13.94 6 17 C8.97 17 11.94 17 15 17 C15 16.34 15 15.68 15 15 C13.68 14.67 12.36 14.34 11 14 C12.65 14 14.3 14 16 14 C16 14.66 16 15.32 16 16 C16.66 15.67 17.32 15.34 18 15 C18.66 14.67 19.32 14.34 20 14 C20 15.32 20 16.64 20 18 C15.05 18 10.1 18 5 18 C4.67 15.69 4.34 13.38 4 11 C3.113125 11.845625 2.22625 12.69125 1.3125 13.5625 C-1.6008348 16.02603251 -1.6008348 16.02603251 -4.875 15.8125 C-5.57625 15.544375 -6.2775 15.27625 -7 15 C-7 14.01 -7 13.02 -7 12 C-7.66 11.67 -8.32 11.34 -9 11 C-8.67 10.67 -8.34 10.34 -8 10 C-11.53411321 7.87953208 -14.94393835 7.46800711 -19 7 C-19 6.67 -19 6.34 -19 6 C-17.82244141 5.97873047 -17.82244141 5.97873047 -16.62109375 5.95703125 C-9.4351338 5.63079749 -5.41292329 4.79781837 0 0 Z " fill="#E5E7E9" transform="translate(745,619)"/>
<path d="M0 0 C7.26 0 14.52 0 22 0 C20.0395104 3.9209792 18.41786202 5.74470275 15.28125 8.703125 C14.34925781 9.60160156 13.41726563 10.50007812 12.45703125 11.42578125 C10.98214728 12.8389464 9.50328321 14.24692165 8.01318359 15.64404297 C0.05217515 22.9918369 0.05217515 22.9918369 -3 33 C-3.66 32.67 -4.32 32.34 -5 32 C-5 29.36 -5 26.72 -5 24 C-4.34 24 -3.68 24 -3 24 C-2.67 21.69 -2.34 19.38 -2 17 C1.96 16.505 1.96 16.505 6 16 C6 14.02 6 12.04 6 10 C7.423125 9.6596875 7.423125 9.6596875 8.875 9.3125 C12.19989872 8.32900783 12.19989872 8.32900783 13.1953125 5.41796875 C13.46085937 4.62003906 13.72640625 3.82210937 14 3 C13.24074219 2.95101562 12.48148437 2.90203125 11.69921875 2.8515625 C10.70535156 2.77679687 9.71148437 2.70203125 8.6875 2.625 C7.70136719 2.55539062 6.71523438 2.48578125 5.69921875 2.4140625 C3 2 3 2 0 0 Z " fill="#D885E7" transform="translate(322,591)"/>
<path d="M0 0 C2.71679109 0.01120728 5.43358853 0.01931245 8.15039062 0.02734375 C14.74617367 0.04917635 21.34181956 0.08247739 27.9375 0.125 C27.9375 0.455 27.9375 0.785 27.9375 1.125 C13.4175 1.455 -1.1025 1.785 -16.0625 2.125 C-16.7225 3.445 -17.3825 4.765 -18.0625 6.125 C-19.66582791 6.20621924 -21.27034026 6.26429134 -22.875 6.3125 C-23.76832031 6.34730469 -24.66164063 6.38210938 -25.58203125 6.41796875 C-28.56309485 6.06587462 -29.04844932 5.21098107 -31.0625 3.125 C-34.69056899 3.35535359 -37.85089112 3.75478618 -41.3125 4.8125 C-43.74331682 5.24657443 -45.00328207 4.37523946 -47.0625 3.125 C-47.0625 2.795 -47.0625 2.465 -47.0625 2.125 C-31.42216907 -0.41979933 -15.80140092 -0.10223698 0 0 Z " fill="#8246C9" transform="translate(342.0625,624.875)"/>
<path d="M0 0 C0.99 0.33 1.98 0.66 3 1 C2.67 3.31 2.34 5.62 2 8 C0.35 8.66 -1.3 9.32 -3 10 C-2.67 11.98 -2.34 13.96 -2 16 C5.59 16.33 13.18 16.66 21 17 C21 17.33 21 17.66 21 18 C9.78 18 -1.44 18 -13 18 C-10.75 12.375 -10.75 12.375 -8.3984375 9.66796875 C-7.66367187 8.81235352 -7.66367187 8.81235352 -6.9140625 7.93945312 C-6.40617187 7.36130859 -5.89828125 6.78316406 -5.375 6.1875 C-4.859375 5.59001953 -4.34375 4.99253906 -3.8125 4.37695312 C-2.54753728 2.91287591 -1.27456166 1.45572845 0 0 Z M4 1 C4.66 1.66 5.32 2.32 6 3 C5.01 4.485 5.01 4.485 4 6 C3.34 6 2.68 6 2 6 C2 5.34 2 4.68 2 4 C2.66 4 3.32 4 4 4 C4 3.01 4 2.02 4 1 Z " fill="#333841" transform="translate(482,607)"/>
<path d="M0 0 C0.33 0 0.66 0 1 0 C1 8.25 1 16.5 1 25 C1.66 25 2.32 25 3 25 C4.29235715 29.91502758 4.11135517 34.77290102 4.0625 39.8125 C4.05798828 40.69615234 4.05347656 41.57980469 4.04882812 42.49023438 C4.03709866 44.66018559 4.01916495 46.83010172 4 49 C5.32 49 6.64 49 8 49 C8 49.66 8 50.32 8 51 C9.32 51.33 10.64 51.66 12 52 C6.81726228 53.01622308 5.11809703 53.04723881 0 51 C0 34.17 0 17.34 0 0 Z " fill="#B368DB" transform="translate(288,575)"/>
<path d="M0 0 C0.33 0 0.66 0 1 0 C1.10158627 6.86836079 1.17154375 13.73652717 1.21972656 20.60546875 C1.23981709 22.94115438 1.26709461 25.27678987 1.30175781 27.61230469 C1.35038691 30.97343331 1.37299492 34.33389575 1.390625 37.6953125 C1.41127014 38.73615997 1.43191528 39.77700745 1.45318604 40.84939575 C1.45505267 46.90769704 1.04479399 50.38900031 -3 55 C-5.18359375 56.828125 -5.18359375 56.828125 -7.4375 58.25 C-8.17871094 58.72953125 -8.91992188 59.2090625 -9.68359375 59.703125 C-12.06249699 61.03498988 -14.44864341 62.04605362 -17 63 C-16.7734375 61.15234375 -16.7734375 61.15234375 -16 59 C-14.0390625 57.69140625 -14.0390625 57.69140625 -11.625 56.5625 C-7.77935461 54.53879789 -5.46088117 53.28525142 -4 49 C-3.78615925 45.98077225 -3.82235198 43.02001627 -4 40 C-3.34 40 -2.68 40 -2 40 C-2 36.7 -2 33.4 -2 30 C-1.67 30 -1.34 30 -1 30 C-0.67 20.1 -0.34 10.2 0 0 Z " fill="#C07FC9" transform="translate(404,576)"/>
<path d="M0 0 C3.29159316 -0.05790353 6.58305603 -0.09356261 9.875 -0.125 C10.81214844 -0.14175781 11.74929688 -0.15851562 12.71484375 -0.17578125 C13.61074219 -0.18222656 14.50664062 -0.18867187 15.4296875 -0.1953125 C16.25710449 -0.20578613 17.08452148 -0.21625977 17.93701172 -0.22705078 C20 0 20 0 22 2 C22.1953125 5.0390625 22.1953125 5.0390625 22.125 8.625 C22.10695313 9.81351563 22.08890625 11.00203125 22.0703125 12.2265625 C22.04710937 13.14179687 22.02390625 14.05703125 22 15 C19.50147086 16.24926457 17.81072328 16.12696747 15.01538086 16.12939453 C13.45883034 16.13412277 13.45883034 16.13412277 11.87083435 16.13894653 C10.184869 16.13591019 10.184869 16.13591019 8.46484375 16.1328125 C7.31585098 16.13376923 6.16685822 16.13472595 4.98304749 16.13571167 C2.55111639 16.13639305 0.11918348 16.13454167 -2.31274414 16.13037109 C-6.05033419 16.12501743 -9.78780432 16.13032004 -13.52539062 16.13671875 C-15.88281277 16.13605806 -18.24023483 16.13477708 -20.59765625 16.1328125 C-21.72365738 16.13483673 -22.84965851 16.13686096 -24.00978088 16.13894653 C-25.04432907 16.13579437 -26.07887726 16.13264221 -27.14477539 16.12939453 C-28.06029678 16.12859894 -28.97581818 16.12780334 -29.91908264 16.12698364 C-32 16 -32 16 -33 15 C-33.25 12.125 -33.25 12.125 -33 9 C-32.01 8.01 -31.02 7.02 -30 6 C-30.33 8.97 -30.66 11.94 -31 15 C-13.84 14.67 3.32 14.34 21 14 C21 11.03 21 8.06 21 5 C20.34 5 19.68 5 19 5 C19 4.34 19 3.68 19 3 C12.73 2.67 6.46 2.34 0 2 C0 1.34 0 0.68 0 0 Z " fill="#33104C" transform="translate(352,609)"/>
<path d="M0 0 C3.42559084 1.20358597 5.53258609 2.35892646 8 5 C4.66909316 5.67918708 1.33512751 6.34186817 -2 7 C-2.94617188 7.19078125 -3.89234375 7.3815625 -4.8671875 7.578125 C-10.00997154 8.57534074 -14.76178373 9.23280961 -20 9 C-20 10.98 -20 12.96 -20 15 C-20.33 15 -20.66 15 -21 15 C-21.495 12.525 -21.495 12.525 -22 10 C-37.84 9.67 -53.68 9.34 -70 9 C-70 8.67 -70 8.34 -70 8 C-69.42529968 7.99191315 -68.85059937 7.98382629 -68.25848389 7.97549438 C-62.22257087 7.88876508 -56.18696082 7.78924076 -50.15136719 7.68261719 C-47.90532561 7.64457055 -45.65922813 7.60967748 -43.41308594 7.578125 C-40.1658137 7.53194157 -36.91891839 7.47404045 -33.671875 7.4140625 C-32.18986603 7.39673569 -32.18986603 7.39673569 -30.67791748 7.37905884 C-24.507502 7.25135802 -18.63312019 6.56945148 -12.56408691 5.4420166 C-9.59744081 4.93060382 -6.7574341 4.795857 -3.75 4.875 C-2.38101563 4.90207031 -2.38101563 4.90207031 -0.984375 4.9296875 C-0.00210938 4.96449219 -0.00210938 4.96449219 1 5 C0.505 2.525 0.505 2.525 0 0 Z " fill="#824CBF" transform="translate(394,566)"/>
<path d="M0 0 C2.27076842 -0.02699725 4.54162821 -0.04639453 6.8125 -0.0625 C8.70935547 -0.07990234 8.70935547 -0.07990234 10.64453125 -0.09765625 C14 0 14 0 17 1 C18.6835443 14.52848101 18.6835443 14.52848101 17 20 C11.8064778 20.85989986 6.82213661 21.15340488 1.5625 21.125 C0.85029297 21.12886719 0.13808594 21.13273438 -0.59570312 21.13671875 C-5.47682485 21.12785204 -10.1672618 20.68649945 -15 20 C-15 19.67 -15 19.34 -15 19 C-14.23333008 18.97494385 -13.46666016 18.9498877 -12.67675781 18.92407227 C-9.20100717 18.80798577 -5.72551908 18.68531634 -2.25 18.5625 C-1.0434375 18.52318359 0.163125 18.48386719 1.40625 18.44335938 C3.14648438 18.38051758 3.14648438 18.38051758 4.921875 18.31640625 C6.52434082 18.26141968 6.52434082 18.26141968 8.15917969 18.20532227 C10.58311152 18.03013091 12.67886712 17.68801513 15 17 C14.94011859 14.87420987 14.85137256 12.74921587 14.75 10.625 C14.70359375 9.44164062 14.6571875 8.25828125 14.609375 7.0390625 C14.33126876 3.96302658 14.33126876 3.96302658 12.28125 2.625 C9.74661348 1.93057904 7.37030735 1.58186637 4.75 1.375 C3.85796875 1.30023437 2.9659375 1.22546875 2.046875 1.1484375 C1.03367187 1.07496094 1.03367187 1.07496094 0 1 C0 0.67 0 0.34 0 0 Z " fill="#D084E3" transform="translate(359,607)"/>
<path d="M0 0 C1.57248582 2.97395654 2.21630672 4.80990451 2.0625 8.1875 C1.98303628 11.26671926 2.12154293 13.85080049 2.5625 16.9375 C3.78477837 26.90779925 2.41679089 37.51422125 1.25 47.4375 C1.13140625 48.44683594 1.0128125 49.45617187 0.890625 50.49609375 C0 53 0 53 -2.40234375 54.8359375 C-5.18173473 56.08143902 -6.99152003 56.25786971 -10 56 C-9.2575 55.46375 -8.515 54.9275 -7.75 54.375 C-4.18477843 51.29594501 -1.41735634 48.50301506 -0.61437988 43.68731689 C-0.44213254 40.90269528 -0.39413991 38.14150738 -0.390625 35.3515625 C-0.37408875 34.33903412 -0.35755249 33.32650574 -0.34051514 32.28329468 C-0.2921073 29.06380096 -0.27067969 25.84477938 -0.25 22.625 C-0.22183437 20.43617426 -0.19190611 18.24737044 -0.16015625 16.05859375 C-0.08635051 10.70581467 -0.03466569 5.35316798 0 0 Z " fill="#200F30" transform="translate(405,579)"/>
<path d="M0 0 C4.36867605 1.59850024 8.34412995 3.76692539 12.375 6.0625 C13.06529297 6.45300537 13.75558594 6.84351074 14.46679688 7.24584961 C21.72025112 11.37079878 28.86973564 15.66652037 36 20 C35.01 20.66 34.02 21.32 33 22 C32.34 21.67 31.68 21.34 31 21 C31 20.34 31 19.68 31 19 C24.63460728 16.88706171 18.68993219 15.53951066 12 15 C12 14.01 12 13.02 12 12 C11.34 11.67 10.68 11.34 10 11 C9.375 8.4375 9.375 8.4375 9 6 C8.071875 5.731875 7.14375 5.46375 6.1875 5.1875 C3.24260908 4.09038378 1.89483803 3.42118193 0 1 C0 0.67 0 0.34 0 0 Z " fill="#764AD9" transform="translate(358,545)"/>
<path d="M0 0 C0.99 0 1.98 0 3 0 C3 0.66 3 1.32 3 2 C3.804375 2.268125 4.60875 2.53625 5.4375 2.8125 C6.7059375 3.4003125 6.7059375 3.4003125 8 4 C8.33 4.99 8.66 5.98 9 7 C15.90188971 7.83854735 22.11422188 8.01593448 29 7 C29 6.34 29 5.68 29 5 C31.97 4.34 34.94 3.68 38 3 C32.44562372 7.65229692 25.67796184 12.73062298 18.21875 13.16015625 C15.75 12.875 15.75 12.875 12 12 C12 11.34 12 10.68 12 10 C11.2575 9.7525 10.515 9.505 9.75 9.25 C6.76975429 7.89534286 5.22008455 6.36809019 3 4 C2.01 3.34 1.02 2.68 0 2 C0 1.34 0 0.68 0 0 Z " fill="#8D57D4" transform="translate(328,648)"/>
<path d="M0 0 C1.01775513 -0.00315216 2.03551025 -0.00630432 3.08410645 -0.009552 C4.19137085 -0.00752777 5.29863525 -0.00550354 6.43945312 -0.00341797 C7.56766479 -0.00437469 8.69587646 -0.00533142 9.85827637 -0.00631714 C12.24910538 -0.00699915 14.63993624 -0.00514344 17.03076172 -0.00097656 C20.70479464 0.00437137 24.37870529 -0.0009209 28.05273438 -0.00732422 C30.3691409 -0.00666344 32.68554734 -0.00538229 35.00195312 -0.00341797 C36.66284973 -0.00645432 36.66284973 -0.00645432 38.3572998 -0.009552 C39.37505493 -0.00639984 40.39281006 -0.00324768 41.44140625 0 C42.79256531 0.00119339 42.79256531 0.00119339 44.17102051 0.00241089 C46.22070312 0.12939453 46.22070312 0.12939453 47.22070312 1.12939453 C47.47070312 4.56689453 47.47070312 4.56689453 47.22070312 8.12939453 C46.23070312 8.78939453 45.24070312 9.44939453 44.22070312 10.12939453 C44.09570312 4.37939453 44.09570312 4.37939453 45.22070312 2.12939453 C29.71070313 2.12939453 14.20070313 2.12939453 -1.77929688 2.12939453 C-2.10929687 3.44939453 -2.43929688 4.76939453 -2.77929688 6.12939453 C-3.43929688 6.12939453 -4.09929687 6.12939453 -4.77929688 6.12939453 C-5.16148455 4.47324796 -5.49324789 2.80482429 -5.77929688 1.12939453 C-4.13841943 -0.51148292 -2.26098625 0.00199698 0 0 Z " fill="#200C3C" transform="translate(325.779296875,574.87060546875)"/>
<path d="M0 0 C0.33 1.32 0.66 2.64 1 4 C1.33 3.01 1.66 2.02 2 1 C3.98 0.67 5.96 0.34 8 0 C9.625 2.75 9.625 2.75 11 6 C10.1875 8.375 10.1875 8.375 9 10 C8.34 9.34 7.68 8.68 7 8 C6.01 9.485 6.01 9.485 5 11 C4.67 10.01 4.34 9.02 4 8 C2.5337667 10.93246659 3.02912611 13.67766743 3.16015625 16.90625 C3 19 3 19 1 21 C0.34 20.34 -0.32 19.68 -1 19 C-0.67 18.34 -0.34 17.68 0 17 C0.46932959 13.92262373 0.60484934 11.06239035 0 8 C-2.84730711 5.43319686 -2.84730711 5.43319686 -6 4 C-6 3.67 -6 3.34 -6 3 C-4.02 3 -2.04 3 0 3 C0 2.01 0 1.02 0 0 Z " fill="#1A1E28" transform="translate(689,616)"/>
<path d="M0 0 C0.66 0.33 1.32 0.66 2 1 C1.566875 2.423125 1.566875 2.423125 1.125 3.875 C-0.02138932 7.82277729 -0.74306078 11.81445256 -1.4375 15.86328125 C-2 18 -2 18 -4 20 C-3.70514846 21.85266073 -3.70514846 21.85266073 -3 24 C-2.20461893 28.06528103 -1.90139214 31.85846987 -2 36 C-2.66 35.67 -3.32 35.34 -4 35 C-4 33.35 -4 31.7 -4 30 C-4.66 30 -5.32 30 -6 30 C-6.11760715 26.83365364 -6.18771024 23.66787926 -6.25 20.5 C-6.30027344 19.1696875 -6.30027344 19.1696875 -6.3515625 17.8125 C-6.44559663 11.41817899 -5.26746467 7.50580662 -2 2 C-1.34 2 -0.68 2 0 2 C0 1.34 0 0.68 0 0 Z " fill="#E373FA" transform="translate(295,570)"/>
<path d="M0 0 C5.2392249 0.48213726 8.9070639 2.4660666 13.25 5.25 C19.02317155 8.8406572 24.83553955 12.11358205 31 15 C31 15.33 31 15.66 31 16 C21.44705882 15.01176471 21.44705882 15.01176471 17 13 C16.5359375 12.01 16.5359375 12.01 16.0625 11 C15.0801565 8.60943937 15.0801565 8.60943937 11.6875 7.8125 C9.8621875 7.4103125 9.8621875 7.4103125 8 7 C7.0925 6.79375 6.185 6.5875 5.25 6.375 C2.8869757 5.91780051 2.8869757 5.91780051 0 6 C0 5.34 0 4.68 0 4 C0.66 3.67 1.32 3.34 2 3 C1.34 2.01 0.68 1.02 0 0 Z M7 9 C9 10 9 10 9 10 Z " fill="#1F1448" transform="translate(304,640)"/>
<path d="M0 0 C1.32 0.66 2.64 1.32 4 2 C4 18.83 4 35.66 4 53 C3.67 53 3.34 53 3 53 C3 47.06 3 41.12 3 35 C2.34 34.67 1.68 34.34 1 34 C1.01047363 33.24904053 1.02094727 32.49808105 1.03173828 31.72436523 C1.07351891 28.29544471 1.09939622 24.86657793 1.125 21.4375 C1.14175781 20.25607422 1.15851563 19.07464844 1.17578125 17.85742188 C1.2094585 11.84603241 1.11038894 6.65816878 -1 1 C-0.67 0.67 -0.34 0.34 0 0 Z " fill="#EDA3EE" transform="translate(400,571)"/>
<path d="M0 0 C0.3125 3.3125 0.3125 3.3125 0 7 C-2.3125 8.6875 -2.3125 8.6875 -5 10 C-5.495 10.66 -5.99 11.32 -6.5 12 C-8.34496819 14.45995759 -10.36673079 15.43257785 -13 17 C-13.845625 17.9075 -14.69125 18.815 -15.5625 19.75 C-16.7690625 20.86375 -16.7690625 20.86375 -18 22 C-20.15234375 21.640625 -20.15234375 21.640625 -22 21 C-19.03075698 18.00611124 -16.05829855 15.01546454 -13.08276367 12.02783203 C-12.0701449 11.01017212 -11.05842377 9.99161821 -10.04760742 8.97216797 C-8.5978706 7.51035593 -7.14497792 6.05174758 -5.69140625 4.59375 C-4.81685791 3.71396484 -3.94230957 2.83417969 -3.04125977 1.92773438 C-1 0 -1 0 0 0 Z " fill="#1D162E" transform="translate(344,593)"/>
<path d="M0 0 C0 0.66 0 1.32 0 2 C1.65 2.33 3.3 2.66 5 3 C5 3.66 5 4.32 5 5 C6.13888672 5.29003906 6.13888672 5.29003906 7.30078125 5.5859375 C8.29464844 5.84632813 9.28851563 6.10671875 10.3125 6.375 C11.79169922 6.75785156 11.79169922 6.75785156 13.30078125 7.1484375 C16 8 16 8 19 10 C19 10.66 19 11.32 19 12 C20.11375 12.433125 20.11375 12.433125 21.25 12.875 C23.56739797 13.82302644 25.77917115 14.84845911 28 16 C28 16.99 28 17.98 28 19 C21.75810012 16.65562446 16.11080987 13.26093542 10.3125 10 C9.15943359 9.35804688 8.00636719 8.71609375 6.81835938 8.0546875 C5.71943359 7.43851563 4.62050781 6.82234375 3.48828125 6.1875 C2.48321533 5.62417969 1.47814941 5.06085937 0.44262695 4.48046875 C-2 3 -2 3 -4 1 C-2 0 -2 0 0 0 Z " fill="#1E1449" transform="translate(356,540)"/>
<path d="M0 0 C0.99 0.66 1.98 1.32 3 2 C2.67 2.66 2.34 3.32 2 4 C0.68 4 -0.64 4 -2 4 C-2 4.66 -2 5.32 -2 6 C-2.99 6 -3.98 6 -5 6 C-5 6.66 -5 7.32 -5 8 C-16.84631148 14.06762295 -16.84631148 14.06762295 -23 15 C-23 14.34 -23 13.68 -23 13 C-20.76171875 11.484375 -20.76171875 11.484375 -17.6875 9.75 C-16.60339844 9.13511719 -15.51929688 8.52023437 -14.40234375 7.88671875 C-9.61521798 5.23208988 -4.82178099 2.59123269 0 0 Z " fill="#28163F" transform="translate(394,635)"/>
<path d="M0 0 C0.66 0.99 1.32 1.98 2 3 C-1.45085401 7.15180873 -4.91008972 11.0356577 -9.0625 14.5 C-13.06468287 17.87806078 -16.04777084 21.69466581 -19 26 C-19.66 25.01 -20.32 24.02 -21 23 C-18.25 18.125 -18.25 18.125 -16 17 C-14.86649466 14.98330173 -14.86649466 14.98330173 -14 13 C-14 13.66 -14 14.32 -14 15 C-13.34 15 -12.68 15 -12 15 C-12 13.35 -12 11.7 -12 10 C-11.38125 9.896875 -10.7625 9.79375 -10.125 9.6875 C-7.63473516 9.12474627 -7.63473516 9.12474627 -6 6 C-5.34 6 -4.68 6 -4 6 C-3.67 5.01 -3.34 4.02 -3 3 C-1.4375 1.3125 -1.4375 1.3125 0 0 Z " fill="#2D153D" transform="translate(368,583)"/>
<path d="M0 0 C2 0 2 0 4.4375 2.375 C5.283125 3.24125 6.12875 4.1075 7 5 C7.99 5.66 8.98 6.32 10 7 C8.50902342 10.7952131 6.24299151 12.61042731 3 15 C1.5 13.875 1.5 13.875 0 12 C-0.1875 9 -0.1875 9 0 6 C0 5.01 0 4.02 0 3 C0 2.01 0 1.02 0 0 Z " fill="#EBEEEF" transform="translate(832,618)"/>
<path d="M0 0 C0.33 0 0.66 0 1 0 C1.07347656 1.37285156 1.07347656 1.37285156 1.1484375 2.7734375 C1.22320313 3.96195313 1.29796875 5.15046875 1.375 6.375 C1.44460938 7.55835938 1.51421875 8.74171875 1.5859375 9.9609375 C1.70217346 13.10562319 1.70217346 13.10562319 4 15 C3.34 15 2.68 15 2 15 C1.67 15.99 1.34 16.98 1 18 C1.66 18.66 2.32 19.32 3 20 C-2.49461223 21.45445618 -7.06970164 20.8444029 -12 18 C-12 17.01 -12 16.02 -12 15 C-8.04 15 -4.08 15 0 15 C0 10.05 0 5.1 0 0 Z " fill="#20242F" transform="translate(554,571)"/>
<path d="M0 0 C4.16138263 -0.08159574 7.9472484 0.01751476 12 1 C12.33 1.99 12.66 2.98 13 4 C14.64333504 5.03789581 16.31243867 6.03567924 18 7 C19.02019573 7.9793879 20.02149805 8.97895449 21 10 C22.31963709 11.01800576 23.65009646 12.02248365 25 13 C24.01 13.495 24.01 13.495 23 14 C17.40567184 11.5867604 12.23071745 8.42006389 7 5.3125 C6.31655518 4.90789551 5.63311035 4.50329102 4.92895508 4.08642578 C3.26793485 3.08699658 1.6313283 2.04719382 0 1 C0 0.67 0 0.34 0 0 Z " fill="#6F4EBF" transform="translate(310,641)"/>
<path d="M0 0 C0.99 0 1.98 0 3 0 C3.66 2.31 4.32 4.62 5 7 C4.34 7.66 3.68 8.32 3 9 C2.01 8.34 1.02 7.68 0 7 C-0.33 7.66 -0.66 8.32 -1 9 C-1.99 9.495 -1.99 9.495 -3 10 C-2.67 10.66 -2.34 11.32 -2 12 C-2.66 12 -3.32 12 -4 12 C-4 12.66 -4 13.32 -4 14 C-4.66 14 -5.32 14 -6 14 C-6.99 11.36 -7.98 8.72 -9 6 C-7.33333333 6 -5.66666667 6 -4 6 C-3.360625 5.01 -2.72125 4.02 -2.0625 3 C-1.381875 2.01 -0.70125 1.02 0 0 Z " fill="#1D222D" transform="translate(851,580)"/>
<path d="M0 0 C0 3.96 0 7.92 0 12 C-0.77085937 11.50628906 -1.54171875 11.01257813 -2.3359375 10.50390625 C-3.33882812 9.86324219 -4.34171875 9.22257813 -5.375 8.5625 C-6.37273438 7.92441406 -7.37046875 7.28632812 -8.3984375 6.62890625 C-10.85830521 5.03100789 -10.85830521 5.03100789 -13 4 C-13 3.34 -13 2.68 -13 2 C-11.1875 1.375 -11.1875 1.375 -9 1 C-8.01 1.66 -7.02 2.32 -6 3 C-5.195625 2.505 -4.39125 2.01 -3.5625 1.5 C-1 0 -1 0 0 0 Z " fill="#23272E" transform="translate(750,568)"/>
<path d="M0 0 C0.680625 0.309375 1.36125 0.61875 2.0625 0.9375 C5.36965912 2.13370649 8.51545878 2.59005397 12 3 C12 2.34 12 1.68 12 1 C15.3 1 18.6 1 22 1 C21.67 2.32 21.34 3.64 21 5 C14.4 5 7.8 5 1 5 C0.67 3.35 0.34 1.7 0 0 Z " fill="#220F33" transform="translate(320,586)"/>
<path d="M0 0 C5.28 0 10.56 0 16 0 C13.29041281 4.06438079 11.41767921 6.82644073 8 10 C7.9175 9.05125 7.835 8.1025 7.75 7.125 C7.35801575 3.93190284 7.35801575 3.93190284 5.125 2.75 C4.073125 2.37875 4.073125 2.37875 3 2 C2.01 1.34 1.02 0.68 0 0 Z " fill="#1C212C" transform="translate(462,590)"/>
<path d="M0 0 C0.66 0.99 1.32 1.98 2 3 C0.9537527 7.94589631 -0.93945159 12.41059672 -3 17 C-5 16 -5 16 -6.25 12.6875 C-7 9 -7 9 -6.375 6.625 C-4.69393283 4.63828425 -3.54150417 4.33886722 -1 4 C-0.67 2.68 -0.34 1.36 0 0 Z " fill="#1B212A" transform="translate(889,603)"/>
<path d="M0 0 C0.59167969 0.20238281 1.18335938 0.40476562 1.79296875 0.61328125 C-13.95190597 10.20781428 -13.95190597 10.20781428 -21.20703125 13.61328125 C-19.58203125 7.86328125 -19.58203125 7.86328125 -16.20703125 5.61328125 C-15.13453125 5.32453125 -14.06203125 5.03578125 -12.95703125 4.73828125 C-9.91865734 3.82676908 -8.118302 3.05210875 -5.51953125 1.42578125 C-2.20703125 -0.38671875 -2.20703125 -0.38671875 0 0 Z " fill="#2B1A4C" transform="translate(323.20703125,550.38671875)"/>
<path d="M0 0 C0.66 0.33 1.32 0.66 2 1 C2 1.66 2 2.32 2 3 C4.31 3.33 6.62 3.66 9 4 C9 4.33 9 4.66 9 5 C-0.24 5 -9.48 5 -19 5 C-18.67 4.01 -18.34 3.02 -18 2 C-17.35933594 2.01160156 -16.71867187 2.02320313 -16.05859375 2.03515625 C-10.92072068 2.08875552 -6.05248712 1.96749753 -1 1 C-0.67 0.67 -0.34 0.34 0 0 Z " fill="#975DF0" transform="translate(363,569)"/>
<path d="M0 0 C1.06863281 0.01804687 2.13726562 0.03609375 3.23828125 0.0546875 C4.04652344 0.07789063 4.85476563 0.10109375 5.6875 0.125 C4.6975 0.62 4.6975 0.62 3.6875 1.125 C3.6875 1.785 3.6875 2.445 3.6875 3.125 C2.69621094 3.0528125 1.70492188 2.980625 0.68359375 2.90625 C-3.86857037 2.90625 -7.25569147 4.59452717 -11.25 6.625 C-12.27577148 7.12580078 -12.27577148 7.12580078 -13.32226562 7.63671875 C-14.99171227 8.45393039 -16.65299985 9.2877747 -18.3125 10.125 C-17.9825 8.805 -17.6525 7.485 -17.3125 6.125 C-15.6625 5.795 -14.0125 5.465 -12.3125 5.125 C-11.9825 4.135 -11.6525 3.145 -11.3125 2.125 C-7.51808189 0.0602896 -4.26440828 -0.09372326 0 0 Z " fill="#1F1745" transform="translate(347.3125,537.875)"/>
<path d="M0 0 C3.16664666 -0.02940458 6.33325747 -0.04693315 9.5 -0.0625 C10.386875 -0.07087891 11.27375 -0.07925781 12.1875 -0.08789062 C17.55823086 -0.10763596 22.68633663 0.21164107 28 1 C27.67 1.66 27.34 2.32 27 3 C23.25014675 3.0871747 19.50055445 3.14045003 15.75 3.1875 C14.15478516 3.22520508 14.15478516 3.22520508 12.52734375 3.26367188 C11.50253906 3.27333984 10.47773438 3.28300781 9.421875 3.29296875 C8.47924805 3.3086792 7.53662109 3.32438965 6.56542969 3.34057617 C3.57689826 2.94383071 2.22310783 1.98295729 0 0 Z " fill="#A260EC" transform="translate(324,626)"/>
<path d="M0 0 C2.25 0.25 2.25 0.25 4 1 C4 3 4 5 4 7 C6.475 7.99 6.475 7.99 9 9 C9 10.32 9 11.64 9 13 C8.34 13 7.68 13 7 13 C6.67 11.68 6.34 10.36 6 9 C5.278125 9.103125 4.55625 9.20625 3.8125 9.3125 C-0.12041589 8.87550935 -1.46321923 6.89917803 -4 4 C-2.25 1.9375 -2.25 1.9375 0 0 Z " fill="#7E4EEC" transform="translate(303,628)"/>
<path d="M0 0 C1.32 0.33 2.64 0.66 4 1 C4 1.66 4 2.32 4 3 C9.4389165 3.21755666 13.87080814 3.10428384 19 1 C19.66 1.66 20.32 2.32 21 3 C17.84732904 6.15267096 14.68258759 6.76443245 10.39453125 7.1484375 C6.39983697 6.90080555 3.32803002 5.112891 0 3 C0 2.01 0 1.02 0 0 Z " fill="#1E143F" transform="translate(336,657)"/>
<path d="M0 0 C1.2065625 0.0309375 1.2065625 0.0309375 2.4375 0.0625 C-2.17746078 4.10059068 -7.49102877 6.0625 -13.5625 6.0625 C-13.5625 6.7225 -13.5625 7.3825 -13.5625 8.0625 C-15.2125 8.0625 -16.8625 8.0625 -18.5625 8.0625 C-18.5625 7.4025 -18.5625 6.7425 -18.5625 6.0625 C-16.2525 5.4025 -13.9425 4.7425 -11.5625 4.0625 C-11.5625 3.0725 -11.5625 2.0825 -11.5625 1.0625 C-10.263125 1.083125 -8.96375 1.10375 -7.625 1.125 C-6.27084367 1.14649454 -4.91493917 1.13398199 -3.5625 1.0625 C-2.5625 0.0625 -2.5625 0.0625 0 0 Z " fill="#B35DF4" transform="translate(370.5625,646.9375)"/>
<path d="M0 0 C7.26 0 14.52 0 22 0 C20 4 20 4 18 4.875 C17.01 4.936875 17.01 4.936875 16 5 C15.34 4.34 14.68 3.68 14 3 C11.43692162 2.6115505 11.43692162 2.6115505 8.5625 2.5 C4.70300811 2.29443452 3.29563449 2.19708966 0 0 Z " fill="#B577C4" transform="translate(322,591)"/>
<path d="M0 0 C8.00352089 3.7567547 15.45935194 8.40491759 23 13 C22.01 13.66 21.02 14.32 20 15 C19.34 14.67 18.68 14.34 18 14 C18 13.34 18 12.68 18 12 C14.7 11.01 11.4 10.02 8 9 C8 8.34 8 7.68 8 7 C7.38125 6.690625 6.7625 6.38125 6.125 6.0625 C4.75 5.375 3.375 4.6875 2 4 C2 3.34 2 2.68 2 2 C1.34 2 0.68 2 0 2 C0 1.34 0 0.68 0 0 Z " fill="#6E4EC3" transform="translate(371,552)"/>
<path d="M0 0 C0 0.99 0 1.98 0 3 C-4.43410632 4.10196725 -8.77272341 4.1489566 -13.3125 4.125 C-14.3943457 4.13080078 -14.3943457 4.13080078 -15.49804688 4.13671875 C-20.41278418 4.12790308 -25.13420677 3.692757 -30 3 C-30 2.67 -30 2.34 -30 2 C-28.83428467 1.96241577 -28.83428467 1.96241577 -27.64501953 1.92407227 C-24.13816931 1.80833204 -20.63160255 1.68550648 -17.125 1.5625 C-15.29001953 1.50352539 -15.29001953 1.50352539 -13.41796875 1.44335938 C-11.66806641 1.38051758 -11.66806641 1.38051758 -9.8828125 1.31640625 C-8.80402832 1.27974854 -7.72524414 1.24309082 -6.61376953 1.20532227 C-4.09663532 1.0075911 -2.46766583 0 0 0 Z " fill="#C078E3" transform="translate(374,624)"/>
<path d="M0 0 C1.49080078 0.02707031 1.49080078 0.02707031 3.01171875 0.0546875 C3.77097656 0.07789063 4.53023437 0.10109375 5.3125 0.125 C5.3125 0.785 5.3125 1.445 5.3125 2.125 C-1.00380593 3.86662847 -7.32397955 5.56413649 -13.6875 7.125 C-6.59881961 -0.15526634 -6.59881961 -0.15526634 0 0 Z " fill="#F4F8FA" transform="translate(548.6875,570.875)"/>
<path d="M0 0 C0.33 0.99 0.66 1.98 1 3 C0.67 3.66 0.34 4.32 0 5 C1.65 5 3.3 5 5 5 C3.55746343 8.36591866 1.66735273 10.51047079 -1 13 C-1 9.7 -1 6.4 -1 3 C-5.95 3 -10.9 3 -16 3 C-16 2.67 -16 2.34 -16 2 C-10.72 2 -5.44 2 0 2 C0 1.34 0 0.68 0 0 Z " fill="#33373D" transform="translate(532,569)"/>
<path d="M0 0 C0.33 0.99 0.66 1.98 1 3 C1.66 3.66 2.32 4.32 3 5 C2.34 5 1.68 5 1 5 C1 5.66 1 6.32 1 7 C-0.65 6.67 -2.3 6.34 -4 6 C-4.33 6.66 -4.66 7.32 -5 8 C-7.64 7.67 -10.28 7.34 -13 7 C-12.43796875 6.72414063 -11.8759375 6.44828125 -11.296875 6.1640625 C-8.91381206 4.95631972 -6.5820992 3.67823191 -4.25 2.375 C-3.45078125 1.92898438 -2.6515625 1.48296875 -1.828125 1.0234375 C-1.22484375 0.68570313 -0.6215625 0.34796875 0 0 Z " fill="#1D2228" transform="translate(837,631)"/>
<path d="M0 0 C0.33 1.32 0.66 2.64 1 4 C1.66 4 2.32 4 3 4 C3.05383848 6.45862401 3.09359038 8.9160755 3.125 11.375 C3.14175781 12.07367187 3.15851562 12.77234375 3.17578125 13.4921875 C3.19344267 15.32897486 3.10303261 17.16601963 3 19 C2.34 19.66 1.68 20.32 1 21 C0.34 20.34 -0.32 19.68 -1 19 C-0.67 18.34 -0.34 17.68 0 17 C0.46932959 13.92262373 0.60484934 11.06239035 0 8 C-2.84730711 5.43319686 -2.84730711 5.43319686 -6 4 C-6 3.67 -6 3.34 -6 3 C-4.02 3 -2.04 3 0 3 C0 2.01 0 1.02 0 0 Z " fill="#2F343C" transform="translate(689,616)"/>
<path d="M0 0 C6.90584443 0.17225462 10.67483383 1.58124509 16 6 C15.67 6.99 15.34 7.98 15 9 C13.24784894 8.06652642 11.49836437 7.1280468 9.75 6.1875 C8.28820312 5.40439453 8.28820312 5.40439453 6.796875 4.60546875 C4.36644588 3.21034812 2.19212301 1.73804039 0 0 Z " fill="#1F1640" transform="translate(385,560)"/>
<path d="M0 0 C4.01349645 0.28001138 5.72035142 0.75763789 8.8125 3.4375 C11 6 11 6 12 8 C11.319375 7.67 10.63875 7.34 9.9375 7 C6.49159762 5.82692685 3.61602578 5.85819507 0 6 C0 5.34 0 4.68 0 4 C0.66 3.67 1.32 3.34 2 3 C1.34 2.01 0.68 1.02 0 0 Z M7 9 C9 10 9 10 9 10 Z " fill="#1A1739" transform="translate(304,640)"/>
<path d="M0 0 C0.33 0.66 0.66 1.32 1 2 C-0.96084212 6.15237154 -4.10150809 10.46455049 -8 13 C-9.32 12.67 -10.64 12.34 -12 12 C-8.04 8.04 -4.08 4.08 0 0 Z " fill="#301440" transform="translate(334,602)"/>
<path d="M0 0 C0.99 0.33 1.98 0.66 3 1 C3 1.66 3 2.32 3 3 C2.01 3.33 1.02 3.66 0 4 C0 8.95 0 13.9 0 19 C-0.66 19 -1.32 19 -2 19 C-4.08962236 15.86556646 -4.25367554 15.12996308 -4.1875 11.5625 C-4.18105469 10.80066406 -4.17460937 10.03882813 -4.16796875 9.25390625 C-4.00451771 7.06062143 -3.60116513 5.11129193 -3 3 C-2.34 3 -1.68 3 -1 3 C-0.67 2.01 -0.34 1.02 0 0 Z " fill="#BC71D0" transform="translate(321,572)"/>
<path d="M0 0 C2.52588702 2.36292656 3.88820837 3.66462511 5 7 C3.1875 8.0625 3.1875 8.0625 1 9 C0.01 8.67 -0.98 8.34 -2 8 C-2.33 9.98 -2.66 11.96 -3 14 C-3.66 14 -4.32 14 -5 14 C-3.45730076 9.27934033 -1.92205381 4.58335908 0 0 Z " fill="#282B34" transform="translate(899,621)"/>
<path d="M0 0 C1.67542976 0.28604898 3.34385343 0.61781233 5 1 C4.67 1.99 4.34 2.98 4 4 C8.29 4.33 12.58 4.66 17 5 C17 5.33 17 5.66 17 6 C10.4 6 3.8 6 -3 6 C-1 1 -1 1 0 0 Z " fill="#A56EBD" transform="translate(352,603)"/>
<path d="M0 0 C3 1 3 1 3 1 Z M-4 1 C-1 1 -1 1 2 3 C0.88333826 6.34998521 0.25305075 6.79340222 -2.5625 8.6875 C-3.52349609 9.34298828 -3.52349609 9.34298828 -4.50390625 10.01171875 C-4.99761719 10.33785156 -5.49132812 10.66398438 -6 11 C-6 10.01 -6 9.02 -6 8 C-6.04125 7.154375 -6.0825 6.30875 -6.125 5.4375 C-6 3 -6 3 -4 1 Z " fill="#ECEFF1" transform="translate(623,579)"/>
<path d="M0 0 C-2.11147313 1.64225688 -4.15169835 3.08343409 -6.5 4.375 C-9.33896849 6.22032952 -11.01497331 8.27977824 -13 11 C-13.3125 8.3125 -13.3125 8.3125 -13 5 C-10.84670921 2.30838651 -9.12980326 0.47931047 -5.9375 -0.875 C-3.75218318 -1.01598818 -2.07709068 -0.66763629 0 0 Z " fill="#2B1443" transform="translate(301,564)"/>
<path d="M0 0 C6.27 0 12.54 0 19 0 C19.33 1.32 19.66 2.64 20 4 C19.01 3.67 18.02 3.34 17 3 C15.66636297 2.85596652 14.32781954 2.75409577 12.98828125 2.68359375 C11.85229492 2.62075195 11.85229492 2.62075195 10.69335938 2.55664062 C9.51483398 2.49766602 9.51483398 2.49766602 8.3125 2.4375 C7.51521484 2.39431641 6.71792969 2.35113281 5.89648438 2.30664062 C3.93118553 2.20072632 1.96561504 2.09987449 0 2 C0 1.34 0 0.68 0 0 Z " fill="#240E38" transform="translate(352,609)"/>
<path d="M0 0 C0.66 0 1.32 0 2 0 C3.32 3.63 4.64 7.26 6 11 C5.34 11.66 4.68 12.32 4 13 C4 12.34 4 11.68 4 11 C3.01 10.67 2.02 10.34 1 10 C-1.28070175 3.84210526 -1.28070175 3.84210526 0 0 Z " fill="#23262F" transform="translate(858,594)"/>
<path d="M0 0 C0.33 0 0.66 0 1 0 C1.04898437 0.60328125 1.09796875 1.2065625 1.1484375 1.828125 C1.22320312 2.62734375 1.29796875 3.4265625 1.375 4.25 C1.44460938 5.03890625 1.51421875 5.8278125 1.5859375 6.640625 C1.88186007 9.01454615 1.88186007 9.01454615 3.03125 11 C4.19823794 13.40926543 4.20322736 15.09026972 4.125 17.75 C4.10695313 18.54921875 4.08890625 19.3484375 4.0703125 20.171875 C4.03550781 21.07679688 4.03550781 21.07679688 4 22 C3.34 21.67 2.68 21.34 2 21 C2 19.35 2 17.7 2 16 C1.34 16 0.68 16 0 16 C0 10.72 0 5.44 0 0 Z " fill="#CB73EA" transform="translate(289,584)"/>
<path d="M0 0 C0.66 0.33 1.32 0.66 2 1 C-0.97 4.96 -0.97 4.96 -4 9 C-6.97 8.505 -6.97 8.505 -10 8 C-10.33 6.68 -10.66 5.36 -11 4 C-10.37351562 3.87882813 -9.74703125 3.75765625 -9.1015625 3.6328125 C-8.28429687 3.46523438 -7.46703125 3.29765625 -6.625 3.125 C-5.81289063 2.96257813 -5.00078125 2.80015625 -4.1640625 2.6328125 C-1.81326077 2.13341068 -1.81326077 2.13341068 0 0 Z " fill="#20242C" transform="translate(580,557)"/>
<path d="M0 0 C2.97 0.495 2.97 0.495 6 1 C6 3.31 6 5.62 6 8 C5.01 8.33 4.02 8.66 3 9 C2.01 9.495 2.01 9.495 1 10 C-1.125 3.375 -1.125 3.375 0 0 Z " fill="#1A212B" transform="translate(665,616)"/>
<path d="M0 0 C0.66 0 1.32 0 2 0 C3.16063604 4.25566547 2.76173392 7.6835078 2 12 C1.34 11.34 0.68 10.68 0 10 C-1.98 10.99 -1.98 10.99 -4 12 C-3.52309796 10.37433394 -3.04340334 8.74948689 -2.5625 7.125 C-2.29566406 6.22007812 -2.02882813 5.31515625 -1.75390625 4.3828125 C-1 2 -1 2 0 0 Z " fill="#1F252E" transform="translate(909,598)"/>
<path d="M0 0 C6.875 2.75 6.875 2.75 8 5 C4.21812119 6.83691257 2.05431692 7.15837626 -2 6 C-1.34 4.02 -0.68 2.04 0 0 Z " fill="#141821" transform="translate(534,568)"/>
<path d="M0 0 C-1.39176632 0.96423026 -2.7886223 1.92111602 -4.1875 2.875 C-4.96480469 3.40867187 -5.74210937 3.94234375 -6.54296875 4.4921875 C-8.9676609 5.98015439 -11.3333499 7.02428078 -14 8 C-13.6503685 5.23257781 -13.30398227 4.23985619 -11.07421875 2.48046875 C-10.28660156 2.05378906 -9.49898438 1.62710938 -8.6875 1.1875 C-7.51767578 0.52814453 -7.51767578 0.52814453 -6.32421875 -0.14453125 C-3.70485652 -1.10863264 -2.57361524 -0.9599526 0 0 Z " fill="#C985DB" transform="translate(401,631)"/>
<path d="M0 0 C1.1875 1.5 1.1875 1.5 2 4 C1.27101296 6.78824238 0.1843275 9.37665092 -1 12 C-1.99 11.67 -2.98 11.34 -4 11 C-3.125 4.25 -3.125 4.25 -2 2 C-1.34 2 -0.68 2 0 2 C0 1.34 0 0.68 0 0 Z " fill="#1A202A" transform="translate(781,584)"/>
<path d="M0 0 C1.32 0.66 2.64 1.32 4 2 C4 9.26 4 16.52 4 24 C3.67 24 3.34 24 3 24 C3 17.73 3 11.46 3 5 C2.01 5 1.02 5 0 5 C-0.5625 3.0625 -0.5625 3.0625 -1 1 C-0.67 0.67 -0.34 0.34 0 0 Z " fill="#EEB8F0" transform="translate(400,571)"/>
<path d="M0 0 C1.134375 0.020625 2.26875 0.04125 3.4375 0.0625 C3.7675 0.7225 4.0975 1.3825 4.4375 2.0625 C2.39790523 2.57088564 0.35570862 3.06883886 -1.6875 3.5625 C-2.82445312 3.8409375 -3.96140625 4.119375 -5.1328125 4.40625 C-8.37716698 5.02703765 -11.27064457 5.18256768 -14.5625 5.0625 C-14.2325 4.4025 -13.9025 3.7425 -13.5625 3.0625 C-11.53125 2.46484375 -11.53125 2.46484375 -9.0625 2 C-5.56147662 1.32970913 -3.50887908 0.06155928 0 0 Z " fill="#EFA5FA" transform="translate(395.5625,571.9375)"/>
<path d="M0 0 C0.66 0 1.32 0 2 0 C3.00496852 3.01490557 3.10335303 5.04181692 3.0625 8.1875 C3.05347656 9.08855469 3.04445313 9.98960937 3.03515625 10.91796875 C3.02355469 11.60503906 3.01195312 12.29210937 3 13 C2.01 13.495 2.01 13.495 1 14 C0.67 12.35 0.34 10.7 0 9 C-0.33 9 -0.66 9 -1 9 C-0.67 6.03 -0.34 3.06 0 0 Z " fill="#2D3237" transform="translate(748,596)"/>
<path d="M0 0 C1.125 1.75 1.125 1.75 2 4 C1.22954244 6.61955569 0.47273383 7.69027784 -1.8125 9.1875 C-4.19081966 10.07087587 -6.50012252 10.58335375 -9 11 C-8.60167969 10.54109375 -8.20335937 10.0821875 -7.79296875 9.609375 C-5.08857938 6.47728415 -2.42008229 3.36122541 0 0 Z " fill="#CA8BD5" transform="translate(373,581)"/>
<path d="M0 0 C-1 3 -1 3 -3.9375 4.6875 C-7 6 -7 6 -9 6 C-9 6.66 -9 7.32 -9 8 C-11.31 8.33 -13.62 8.66 -16 9 C-13.50506504 6.18368359 -10.73437182 4.59044019 -7.4375 2.8125 C-6.46683594 2.28269531 -5.49617188 1.75289062 -4.49609375 1.20703125 C-2 0 -2 0 0 0 Z " fill="#A16CD8" transform="translate(336,545)"/>
<path d="M0 0 C2 3 2 3 2 5 C3.32 5 4.64 5 6 5 C6 5.66 6 6.32 6 7 C7.32 7.33 8.64 7.66 10 8 C2.57142857 9.28571429 2.57142857 9.28571429 -1 8 C-0.67 5.36 -0.34 2.72 0 0 Z " fill="#A959F0" transform="translate(290,619)"/>
<path d="M0 0 C0.66 0 1.32 0 2 0 C2 0.66 2 1.32 2 2 C3.65 2.33 5.3 2.66 7 3 C7 3.66 7 4.32 7 5 C8.98 5.66 10.96 6.32 13 7 C13 7.99 13 8.98 13 10 C8.05 7.36 3.1 4.72 -2 2 C-1.34 1.34 -0.68 0.68 0 0 Z " fill="#221252" transform="translate(354,540)"/>
<path d="M0 0 C0.33 0 0.66 0 1 0 C1.03738281 0.74765625 1.07476563 1.4953125 1.11328125 2.265625 C1.17902344 3.25046875 1.24476563 4.2353125 1.3125 5.25 C1.37050781 6.22453125 1.42851563 7.1990625 1.48828125 8.203125 C2.04636524 11.25341611 2.96369776 12.70711276 5 15 C2.525 16.485 2.525 16.485 0 18 C-1.60670684 14.78658631 -0.82510855 11.37041032 -0.5625 7.875 C-0.51029297 7.12089844 -0.45808594 6.36679687 -0.40429688 5.58984375 C-0.27454996 3.7262063 -0.13792512 1.86305004 0 0 Z " fill="#353B42" transform="translate(667,598)"/>
<path d="M0 0 C3.3 0 6.6 0 10 0 C9.67 1.32 9.34 2.64 9 4 C7.02 4 5.04 4 3 4 C3 3.34 3 2.68 3 2 C2.01 2 1.02 2 0 2 C0 1.34 0 0.68 0 0 Z " fill="#1B1230" transform="translate(332,587)"/>
<path d="M0 0 C1.97909398 -0.02686553 3.95828971 -0.04633375 5.9375 -0.0625 C7.03964844 -0.07410156 8.14179688 -0.08570313 9.27734375 -0.09765625 C12 0 12 0 13 1 C13.25 4.4375 13.25 4.4375 13 8 C12.01 8.66 11.02 9.32 10 10 C9.875 4.25 9.875 4.25 11 2 C7.37 1.67 3.74 1.34 0 1 C0 0.67 0 0.34 0 0 Z " fill="#271245" transform="translate(360,575)"/>
<path d="M0 0 C0.33 0.66 0.66 1.32 1 2 C-3.82732192 6.93291958 -7.05992846 8.75648872 -14 9 C-11.85741777 6.64985512 -9.87370678 5.28182874 -7 3.9375 C-4.47254748 2.74557637 -2.34710659 1.56473773 0 0 Z " fill="#2B134D" transform="translate(369,649)"/>
<path d="M0 0 C1.65 0 3.3 0 5 0 C6.03159626 3.09478879 5.97482862 4.52631393 5.5625 7.6875 C5.46066406 8.49574219 5.35882813 9.30398438 5.25390625 10.13671875 C5.17011719 10.75160156 5.08632813 11.36648438 5 12 C4.01 12 3.02 12 2 12 C2 10.68 2 9.36 2 8 C2.66 8 3.32 8 4 8 C3.525625 7.05125 3.05125 6.1025 2.5625 5.125 C1.70833333 3.41666667 0.85416667 1.70833333 0 0 Z " fill="#E274F3" transform="translate(312,576)"/>
<path d="M0 0 C0.66 0.33 1.32 0.66 2 1 C0.6875 3.9375 0.6875 3.9375 -1 7 C-1.99 7.33 -2.98 7.66 -4 8 C-5.20882096 10.00016466 -5.20882096 10.00016466 -6 12 C-6.99 11.67 -7.98 11.34 -9 11 C-6.03 7.37 -3.06 3.74 0 0 Z " fill="#E5E7EC" transform="translate(461,611)"/>
<path d="M0 0 C1.65 0.33 3.3 0.66 5 1 C2.25 6.875 2.25 6.875 0 8 C0 7.01 0 6.02 0 5 C-0.99 5.33 -1.98 5.66 -3 6 C-3 5.34 -3 4.68 -3 4 C-2.34 4 -1.68 4 -1 4 C-0.67 2.68 -0.34 1.36 0 0 Z " fill="#EBECED" transform="translate(659,619)"/>
<path d="M0 0 C0 1.98 0 3.96 0 6 C-0.99 6.33 -1.98 6.66 -3 7 C-6 2.25 -6 2.25 -6 0 C-2.25 -1.125 -2.25 -1.125 0 0 Z " fill="#1E222A" transform="translate(718,612)"/>
<path d="M0 0 C0.66 0.33 1.32 0.66 2 1 C0.03681826 4.53372712 -2.04070881 7.24479785 -5 10 C-5.99 9.34 -6.98 8.68 -8 8 C-6.71034824 6.62437146 -5.37310707 5.29233607 -4 4 C-3.34 4 -2.68 4 -2 4 C-1.34 2.68 -0.68 1.36 0 0 Z " fill="#C17DD5" transform="translate(361,594)"/>
<path d="M0 0 C0.66 0.33 1.32 0.66 2 1 C1.34 2.65 0.68 4.3 0 6 C-1.32 6 -2.64 6 -4 6 C-4.66 7.65 -5.32 9.3 -6 11 C-6.66 11 -7.32 11 -8 11 C-6.52670958 5.99081256 -3.72484762 3.48192278 0 0 Z " fill="#282E33" transform="translate(720,585)"/>
<path d="M0 0 C2.31 0.66 4.62 1.32 7 2 C5.35 3.32 3.7 4.64 2 6 C-0.475 5.01 -0.475 5.01 -3 4 C-2.01 2.68 -1.02 1.36 0 0 Z " fill="#262A31" transform="translate(795,634)"/>
<path d="M0 0 C2 0.66666667 4 1.33333333 6 2 C7.093125 2.28875 8.18625 2.5775 9.3125 2.875 C12 4 12 4 12.875 6.125 C12.936875 7.053125 12.936875 7.053125 13 8 C8.1725201 6.58707905 4.2837641 4.57025846 0 2 C0 1.34 0 0.68 0 0 Z " fill="#7250C8" transform="translate(297,633)"/>
<path d="M0 0 C0.33 0 0.66 0 1 0 C1.3125 3.3125 1.3125 3.3125 1 7 C-1.64755663 9.34497873 -3.2936993 9.95291329 -6.8125 10.1875 C-7.8953125 10.0946875 -7.8953125 10.0946875 -9 10 C-8.2575 9.46375 -7.515 8.9275 -6.75 8.375 C-3.82649095 5.85015128 -2.06298806 3.24183838 0 0 Z " fill="#311844" transform="translate(404,625)"/>
<path d="M0 0 C-0.33 1.65 -0.66 3.3 -1 5 C-1.639375 5.12375 -2.27875 5.2475 -2.9375 5.375 C-3.9584375 5.684375 -3.9584375 5.684375 -5 6 C-5.33 6.66 -5.66 7.32 -6 8 C-6.66 7.34 -7.32 6.68 -8 6 C-3.375 0 -3.375 0 0 0 Z " fill="#E8EAED" transform="translate(652,615)"/>
<path d="M0 0 C1.32 0.66 2.64 1.32 4 2 C2.71451591 3.33929505 1.42141845 4.67128643 0.125 6 C-0.59429687 6.7425 -1.31359375 7.485 -2.0546875 8.25 C-4 10 -4 10 -6 10 C-6 9.34 -6 8.68 -6 8 C-5.34 7.67 -4.68 7.34 -4 7 C-4.33 6.34 -4.66 5.68 -5 5 C-4.01 4.67 -3.02 4.34 -2 4 C-0.79117904 1.99983534 -0.79117904 1.99983534 0 0 Z " fill="#D088E2" transform="translate(336,595)"/>
<path d="M0 0 C1.1157177 3.34715311 1.1807689 4.71071522 0 8 C-2.5625 9.3125 -2.5625 9.3125 -5 10 C-3.84414715 6.08788267 -2.64465038 3.1254959 0 0 Z " fill="#E1E3E6" transform="translate(786,582)"/>
<path d="M0 0 C4.13830989 0.30096799 6.51847024 0.67898016 10 3 C8.56465159 3.2226746 7.12654475 3.42761906 5.6875 3.625 C4.88699219 3.74101563 4.08648438 3.85703125 3.26171875 3.9765625 C1 4 1 4 -2 2 C-1.34 1.34 -0.68 0.68 0 0 Z " fill="#FAFCFB" transform="translate(809,634)"/>
<path d="M0 0 C0.99 0.33 1.98 0.66 3 1 C2.0409375 2.051875 2.0409375 2.051875 1.0625 3.125 C-1.16386102 6.22841233 -1.65080943 8.24620139 -2 12 C-2.66 11.67 -3.32 11.34 -4 11 C-4 8.36 -4 5.72 -4 3 C-2.68 2.67 -1.36 2.34 0 2 C0 1.34 0 0.68 0 0 Z " fill="#CA7CE2" transform="translate(321,612)"/>
<path d="M0 0 C2 3 2 3 2 7 C-0.64 7 -3.28 7 -6 7 C-6 6.01 -6 5.02 -6 4 C-5.38125 3.71125 -4.7625 3.4225 -4.125 3.125 C-1.86674235 2.06279958 -1.86674235 2.06279958 0 0 Z " fill="#F08BF5" transform="translate(374,585)"/>
<path d="M0 0 C0.556875 0.226875 1.11375 0.45375 1.6875 0.6875 C-0.86032974 3.65996802 -3.76590883 5.10285288 -7.3125 6.6875 C-7.9725 6.6875 -8.6325 6.6875 -9.3125 6.6875 C-7.70234959 2.442558 -4.80443663 -0.64924819 0 0 Z " fill="#DFE1E4" transform="translate(681.3125,619.3125)"/>
<path d="M0 0 C0.99 0 1.98 0 3 0 C1.14285714 7.57142857 1.14285714 7.57142857 -2 10 C-2.25 3.375 -2.25 3.375 0 0 Z " fill="#CF82E5" transform="translate(291,570)"/>
<path d="M0 0 C1.79398267 0.95399078 3.58511655 1.91334026 5.375 2.875 C6.37273437 3.40867187 7.37046875 3.94234375 8.3984375 4.4921875 C11 6 11 6 13 8 C8.14036821 7.39254603 4.2594482 5.27241033 0 3 C0 2.01 0 1.02 0 0 Z " fill="#251357" transform="translate(293,632)"/>
<path d="M0 0 C0.66 0.33 1.32 0.66 2 1 C1.67 1.66 1.34 2.32 1 3 C1.66 3 2.32 3 3 3 C3.33 2.34 3.66 1.68 4 1 C4.33 1.99 4.66 2.98 5 4 C-0.75 7 -0.75 7 -3 7 C-2.625 4.0625 -2.625 4.0625 -2 1 C-1.34 0.67 -0.68 0.34 0 0 Z " fill="#20242C" transform="translate(674,616)"/>
<path d="M0 0 C0.66 0 1.32 0 2 0 C2.027193 1.58323688 2.04648306 3.16661062 2.0625 4.75 C2.07410156 5.63171875 2.08570313 6.5134375 2.09765625 7.421875 C2.00826198 9.7818838 1.66912821 11.74498524 1 14 C0.34 14 -0.32 14 -1 14 C-0.67 9.38 -0.34 4.76 0 0 Z " fill="#D983ED" transform="translate(375,613)"/>
<path d="M0 0 C2.76276177 0.52268466 5.3260876 1.10869587 8 2 C8.33 2.66 8.66 3.32 9 4 C9.66 3.67 10.32 3.34 11 3 C10.34 4.32 9.68 5.64 9 7 C5.18315774 5.44499019 2.80804268 2.96404505 0 0 Z " fill="#E8EAEB" transform="translate(740,585)"/>
<path d="M0 0 C0.33 0 0.66 0 1 0 C1.33 3.63 1.66 7.26 2 11 C1.01 11.33 0.02 11.66 -1 12 C-1.2226746 10.56465159 -1.42761906 9.12654475 -1.625 7.6875 C-1.74101562 6.88699219 -1.85703125 6.08648438 -1.9765625 5.26171875 C-2 3 -2 3 0 0 Z " fill="#D976F1" transform="translate(291,577)"/>
<path d="M0 0 C3.37503669 1.1858237 5.64722731 2.27573689 8 5 C5.69 5.33 3.38 5.66 1 6 C0.67 4.02 0.34 2.04 0 0 Z " fill="#7A5AC2" transform="translate(394,566)"/>
<path d="M0 0 C-0.33 0.99 -0.66 1.98 -1 3 C-2.62463842 3.05395478 -4.24978541 3.09277195 -5.875 3.125 C-6.77992188 3.14820313 -7.68484375 3.17140625 -8.6171875 3.1953125 C-11 3 -11 3 -13 1 C-8.62426048 0.40667939 -4.42471556 -0.13827236 0 0 Z " fill="#904FFA" transform="translate(325,628)"/>
<path d="M0 0 C-0.66 1.65 -1.32 3.3 -2 5 C-4.97 4.505 -4.97 4.505 -8 4 C-8.33 3.01 -8.66 2.02 -9 1 C-6.04335481 -0.4783226 -3.25770263 -0.06032783 0 0 Z " fill="#FCFDFD" transform="translate(639,626)"/>
<path d="M0 0 C0.33 0.99 0.66 1.98 1 3 C-0.40445835 5.2636564 -2.1967913 7.0208685 -4 9 C-5.32 8.67 -6.64 8.34 -8 8 C-5.36 5.36 -2.72 2.72 0 0 Z " fill="#341645" transform="translate(343,593)"/>
<path d="M0 0 C1.58246707 -0.08153933 3.16616273 -0.13943557 4.75 -0.1875 C6.07257812 -0.23970703 6.07257812 -0.23970703 7.421875 -0.29296875 C10.44671583 0.05076316 11.75583602 1.00227459 14 3 C11.03 3 8.06 3 5 3 C5 2.34 5 1.68 5 1 C3.35 1 1.7 1 0 1 C0 0.67 0 0.34 0 0 Z " fill="#363A3F" transform="translate(628,583)"/>
<path d="M0 0 C6.70518586 -0.19818283 12.65176798 -0.30844801 19 2 C15.22205161 3.25931613 12.93043638 2.63394135 9 2 C6.00256536 1.64259523 3.0016502 1.31990376 0 1 C0 0.67 0 0.34 0 0 Z " fill="#CDD0D6" transform="translate(807,570)"/>
<path d="M0 0 C0 0.66 0 1.32 0 2 C-1.53125 3.5078125 -1.53125 3.5078125 -3.5 5.125 C-4.1496875 5.66382813 -4.799375 6.20265625 -5.46875 6.7578125 C-5.9740625 7.16773438 -6.479375 7.57765625 -7 8 C-7.33 7.34 -7.66 6.68 -8 6 C-5.8442568 1.79116804 -4.90656755 0 0 0 Z " fill="#27133E" transform="translate(310,556)"/>
<path d="M0 0 C-3.64116773 3.33773709 -7.28607242 3.97864902 -12 5 C-11.3125 3.0625 -11.3125 3.0625 -10 1 C-6.67000827 -0.07999732 -3.48044019 -0.09944115 0 0 Z " fill="#B36EE0" transform="translate(373,647)"/>
<path d="M0 0 C2.97 0.33 5.94 0.66 9 1 C9.33 1.99 9.66 2.98 10 4 C10.99 4.66 11.98 5.32 13 6 C8.21193122 6.74813575 5.43289751 4.69491132 1.57421875 2.19140625 C1.05472656 1.79824219 0.53523438 1.40507813 0 1 C0 0.67 0 0.34 0 0 Z " fill="#7F50E9" transform="translate(313,641)"/>
<path d="M0 0 C0.66 0.33 1.32 0.66 2 1 C1.67 1.99 1.34 2.98 1 4 C1.33 4.99 1.66 5.98 2 7 C1.01 7.33 0.02 7.66 -1 8 C-2.5 6.625 -2.5 6.625 -4 5 C-4 4.34 -4 3.68 -4 3 C-2 1.375 -2 1.375 0 0 Z " fill="#21232C" transform="translate(745,632)"/>
<path d="M0 0 C1.32 0 2.64 0 4 0 C3.45773019 3.79588866 1.79872437 5.47211993 -1 8 C-1.04241723 5.66705225 -1.04092937 3.33297433 -1 1 C-0.67 0.67 -0.34 0.34 0 0 Z " fill="#20242A" transform="translate(458,608)"/>
<path d="M0 0 C1.125 1.5 1.125 1.5 2 4 C1.57598348 6.7773082 0.81108065 9.29639783 0 12 C-1.76065836 9.35901246 -2.52722899 8.0257345 -3 5 C-2.67 4.01 -2.34 3.02 -2 2 C-1.34 2 -0.68 2 0 2 C0 1.34 0 0.68 0 0 Z " fill="#1F232D" transform="translate(870,569)"/>
<path d="M0 0 C-1.29096781 0.81360995 -2.58279875 1.62585046 -3.875 2.4375 C-4.59429688 2.88996094 -5.31359375 3.34242188 -6.0546875 3.80859375 C-8 5 -8 5 -10 6 C-10 4.02 -10 2.04 -10 0 C-3.375 -1.125 -3.375 -1.125 0 0 Z " fill="#282B30" transform="translate(625,572)"/>
<path d="M0 0 C0.8971875 0.309375 0.8971875 0.309375 1.8125 0.625 C0.8225 1.12 0.8225 1.12 -0.1875 1.625 C-1.1775 3.11 -1.1775 3.11 -2.1875 4.625 C-4.81106462 5.61015378 -7.43274123 6.04738929 -10.1875 6.625 C-3.20231959 -0.54896907 -3.20231959 -0.54896907 0 0 Z " fill="#D9DDE1" transform="translate(545.1875,571.375)"/>
<path d="M0 0 C-3.96 1.98 -7.92 3.96 -12 6 C-11.67 4.68 -11.34 3.36 -11 2 C-6.63269119 -0.38965954 -4.91414388 -1.22853597 0 0 Z " fill="#27154E" transform="translate(341,542)"/>
<path d="M0 0 C0 3.22320821 -0.36600277 5.15467037 -2.3125 7.75 C-4 9 -4 9 -6.1875 8.6875 C-6.785625 8.460625 -7.38375 8.23375 -8 8 C-5.33333333 5.33333333 -2.66666667 2.66666667 0 0 Z " fill="#262A2E" transform="translate(660,626)"/>
<path d="M0 0 C1.98 0 3.96 0 6 0 C5.75 2.375 5.75 2.375 5 5 C2.9375 6.3125 2.9375 6.3125 1 7 C1 5.68 1 4.36 1 3 C1.66 2.67 2.32 2.34 3 2 C2.01 1.34 1.02 0.68 0 0 Z " fill="#ECEDEC" transform="translate(651,626)"/>
<path d="M0 0 C0.66 0.66 1.32 1.32 2 2 C2.66 1.34 3.32 0.68 4 0 C4.6875 1.625 4.6875 1.625 5 4 C3.5625 7.25 3.5625 7.25 2 10 C1.34 9.67 0.68 9.34 0 9 C0 8.34 0 7.68 0 7 C0.66 7 1.32 7 2 7 C1.67 6.401875 1.34 5.80375 1 5.1875 C0 3 0 3 0 0 Z " fill="#22252D" transform="translate(745,608)"/>
<path d="M0 0 C0.99 0 1.98 0 3 0 C3 1.98 3 3.96 3 6 C1.68 6.33 0.36 6.66 -1 7 C-2 4 -2 4 -1.0625 1.8125 C-0.5365625 0.9153125 -0.5365625 0.9153125 0 0 Z " fill="#ECF0F1" transform="translate(700,585)"/>
<path d="M0 0 C0.66 0.66 1.32 1.32 2 2 C-0.64 3.65 -3.28 5.3 -6 7 C-6.33 6.34 -6.66 5.68 -7 5 C-6.0625 2.875 -6.0625 2.875 -5 1 C-3.35 1.33 -1.7 1.66 0 2 C0 1.34 0 0.68 0 0 Z " fill="#20252D" transform="translate(711,572)"/>
<path d="M0 0 C1.32 0.33 2.64 0.66 4 1 C4.144375 1.598125 4.28875 2.19625 4.4375 2.8125 C4.8872439 4.56150404 5.42892341 6.28677023 6 8 C4.68 8 3.36 8 2 8 C0.23537317 4.91190305 0 3.76687864 0 0 Z " fill="#221930" transform="translate(402,568)"/>
<path d="M0 0 C0 0.99 0 1.98 0 3 C-0.9590625 3.1546875 -0.9590625 3.1546875 -1.9375 3.3125 C-2.618125 3.539375 -3.29875 3.76625 -4 4 C-4.33 4.99 -4.66 5.98 -5 7 C-6.32 7 -7.64 7 -9 7 C-9 6.34 -9 5.68 -9 5 C-6.03 3.35 -3.06 1.7 0 0 Z " fill="#BA7BE2" transform="translate(319,554)"/>
<path d="M0 0 C1.65 0 3.3 0 5 0 C5.33 0.66 5.66 1.32 6 2 C5.01 2.495 5.01 2.495 4 3 C3.67 3.99 3.34 4.98 3 6 C2.01 5.67 1.02 5.34 0 5 C0 3.35 0 1.7 0 0 Z " fill="#E578F5" transform="translate(384,633)"/>
<path d="M0 0 C0.66 0 1.32 0 2 0 C2 0.66 2 1.32 2 2 C2.66 2.33 3.32 2.66 4 3 C2.68 4.65 1.36 6.3 0 8 C-1.125 5.6875 -1.125 5.6875 -2 3 C-1.34 2.01 -0.68 1.02 0 0 Z " fill="#ECEFEF" transform="translate(468,617)"/>
<path d="M0 0 C0.99 0.99 1.98 1.98 3 3 C2.34 4.98 1.68 6.96 1 9 C0.01 8.34 -0.98 7.68 -2 7 C-2.3125 4.5 -2.3125 4.5 -2 2 C-1.34 1.34 -0.68 0.68 0 0 Z " fill="#1B2028" transform="translate(893,592)"/>
<path d="M0 0 C3.16115776 1.36983503 3.9927092 1.9890638 6 5 C5.67 5.99 5.34 6.98 5 8 C2.5 5.6875 2.5 5.6875 0 3 C0 2.01 0 1.02 0 0 Z " fill="#14181E" transform="translate(824,587)"/>
<path d="M0 0 C0.66 0 1.32 0 2 0 C2.33 1.65 2.66 3.3 3 5 C3.66 5 4.32 5 5 5 C4.34 6.32 3.68 7.64 3 9 C3 8.01 3 7.02 3 6 C2.01 6 1.02 6 0 6 C-0.38218767 4.34385343 -0.71395102 2.67542976 -1 1 C-0.67 0.67 -0.34 0.34 0 0 Z " fill="#1D2029" transform="translate(666,589)"/>
<path d="M0 0 C0.99 0 1.98 0 3 0 C3.33 1.65 3.66 3.3 4 5 C2 5 0 5 -2 5 C-2 4.01 -2 3.02 -2 2 C-1.34 2 -0.68 2 0 2 C0 1.34 0 0.68 0 0 Z " fill="#ECF0F1" transform="translate(866,578)"/>
<path d="M0 0 C1.32 0.33 2.64 0.66 4 1 C3.2884375 1.61875 3.2884375 1.61875 2.5625 2.25 C0.83733482 4.182185 0.43415125 5.48192275 0 8 C-0.99 8 -1.98 8 -3 8 C-3.66 6.68 -4.32 5.36 -5 4 C-4.0409375 3.8453125 -4.0409375 3.8453125 -3.0625 3.6875 C-2.381875 3.460625 -1.70125 3.23375 -1 3 C-0.67 2.01 -0.34 1.02 0 0 Z " fill="#A357EE" transform="translate(336,544)"/>
<path d="M0 0 C0 0.99 0 1.98 0 3 C0.66 3 1.32 3 2 3 C2 3.66 2 4.32 2 5 C0.35 4.67 -1.3 4.34 -3 4 C-3 3.34 -3 2.68 -3 2 C-4.65 2.33 -6.3 2.66 -8 3 C-8 2.34 -8 1.68 -8 1 C-2.25 0 -2.25 0 0 0 Z " fill="#181333" transform="translate(359,538)"/>
<path d="M0 0 C0.86625 0.3403125 0.86625 0.3403125 1.75 0.6875 C1.75 1.6775 1.75 2.6675 1.75 3.6875 C-1.125 4.3125 -1.125 4.3125 -4.25 4.6875 C-4.91 4.0275 -5.57 3.3675 -6.25 2.6875 C-2.80384615 -0.38942308 -2.80384615 -0.38942308 0 0 Z " fill="#834BF7" transform="translate(305.25,628.3125)"/>
<path d="M0 0 C0.66 0.66 1.32 1.32 2 2 C1.625 5.625 1.625 5.625 1 9 C0.34 9 -0.32 9 -1 9 C-1.80967438 6.08517222 -2.21845993 4.53886783 -1.0625 1.6875 C-0.711875 1.130625 -0.36125 0.57375 0 0 Z " fill="#1B2025" transform="translate(663,621)"/>
<path d="M0 0 C0.66 0.66 1.32 1.32 2 2 C1.625 4.125 1.625 4.125 1 6 C-0.65 6.33 -2.3 6.66 -4 7 C-4 5.68 -4 4.36 -4 3 C-3.01 2.67 -2.02 2.34 -1 2 C-0.67 1.34 -0.34 0.68 0 0 Z " fill="#1B1F2B" transform="translate(806,616)"/>
<path d="M0 0 C-1.04874998 2.62187494 -1.64931313 3.79371361 -4.125 5.25 C-4.74375 5.4975 -5.3625 5.745 -6 6 C-6.33 4.68 -6.66 3.36 -7 2 C-4.35261084 0.5393715 -3.10551666 0 0 0 Z " fill="#EBECEF" transform="translate(480,609)"/>
<path d="M0 0 C1.65 0 3.3 0 5 0 C4.67 1.32 4.34 2.64 4 4 C3.01 4 2.02 4 1 4 C1 4.66 1 5.32 1 6 C0.34 6 -0.32 6 -1 6 C-0.67 4.02 -0.34 2.04 0 0 Z " fill="#DE7BED" transform="translate(320,608)"/>
<path d="M0 0 C0 0.33 0 0.66 0 1 C-7.625 3.125 -7.625 3.125 -11 2 C-11 1.34 -11 0.68 -11 0 C-6.94952424 -1.35015859 -4.2079832 -0.62084998 0 0 Z " fill="#CA6FF2" transform="translate(331,571)"/>
<path d="M0 0 C2.64 0 5.28 0 8 0 C7.34 1.65 6.68 3.3 6 5 C3.36 4.34 0.72 3.68 -2 3 C-1.34 2.67 -0.68 2.34 0 2 C0 1.34 0 0.68 0 0 Z " fill="#232630" transform="translate(821,568)"/>
<path d="M0 0 C2.64 0.33 5.28 0.66 8 1 C8.33 2.32 8.66 3.64 9 5 C5.54074837 3.7508258 2.85306797 2.32472205 0 0 Z " fill="#261A51" transform="translate(385,560)"/>
<path d="M0 0 C0.78375 0.04125 1.5675 0.0825 2.375 0.125 C2.045 2.105 1.715 4.085 1.375 6.125 C-0.605 4.805 -2.585 3.485 -4.625 2.125 C-2.625 0.125 -2.625 0.125 0 0 Z " fill="#252A34" transform="translate(579.625,540.875)"/>
<path d="M0 0 C0 0.66 0 1.32 0 2 C-2.64 2.66 -5.28 3.32 -8 4 C-7.67 2.68 -7.34 1.36 -7 0 C-3.86650268 -1.04449911 -3.01031744 -0.93423645 0 0 Z " fill="#1F232C" transform="translate(573,540)"/>
<path d="M0 0 C1.32 0.33 2.64 0.66 4 1 C4 1.66 4 2.32 4 3 C5.32 3.33 6.64 3.66 8 4 C5.39417629 4.93065133 4.35801776 5.14917407 1.75 4.0625 C1.1725 3.711875 0.595 3.36125 0 3 C0 2.01 0 1.02 0 0 Z " fill="#20164F" transform="translate(336,657)"/>
<path d="M0 0 C0.99 0 1.98 0 3 0 C3.66 1.98 4.32 3.96 5 6 C4.01 6.495 4.01 6.495 3 7 C3 6.34 3 5.68 3 5 C2.01 5 1.02 5 0 5 C0 3.35 0 1.7 0 0 Z " fill="#24282F" transform="translate(694,616)"/>
<path d="M0 0 C1.98 0.66 3.96 1.32 6 2 C5.67 2.99 5.34 3.98 5 5 C3.35 4.67 1.7 4.34 0 4 C0 2.68 0 1.36 0 0 Z " fill="#292C34" transform="translate(819,583)"/>
<path d="M0 0 C1.73543126 2.60314689 2.61121812 3.98694043 3 7 C2.34 7.66 1.68 8.32 1 9 C0.34 8.34 -0.32 7.68 -1 7 C-0.625 3.375 -0.625 3.375 0 0 Z " fill="#252B35" transform="translate(853,580)"/>
<path d="M0 0 C0.99 0.66 1.98 1.32 3 2 C1.68 3.32 0.36 4.64 -1 6 C-1.99 5.67 -2.98 5.34 -4 5 C-3.67 3.68 -3.34 2.36 -3 1 C-2.34 1 -1.68 1 -1 1 C-0.67 0.67 -0.34 0.34 0 0 Z " fill="#1C232D" transform="translate(702,578)"/>
<path d="M0 0 C2.97 0 5.94 0 9 0 C9.33 1.32 9.66 2.64 10 4 C9.01 4.495 9.01 4.495 8 5 C6.0546875 4.22265625 6.0546875 4.22265625 3.875 3.0625 C3.15054688 2.68222656 2.42609375 2.30195312 1.6796875 1.91015625 C1.12539063 1.60980469 0.57109375 1.30945313 0 1 C0 0.67 0 0.34 0 0 Z " fill="#31333C" transform="translate(646,572)"/>
<path d="M0 0 C0.99 0 1.98 0 3 0 C3 0.99 3 1.98 3 3 C3.66 3.33 4.32 3.66 5 4 C4.67 4.99 4.34 5.98 4 7 C2.35 6.01 0.7 5.02 -1 4 C-0.67 2.68 -0.34 1.36 0 0 Z " fill="#262931" transform="translate(829,570)"/>
<path d="M0 0 C2.31 0.66 4.62 1.32 7 2 C7 2.99 7 3.98 7 5 C4.03 4.505 4.03 4.505 1 4 C0.67 2.68 0.34 1.36 0 0 Z " fill="#1A163A" transform="translate(367,547)"/>
<path d="M0 0 C0.33 0.66 0.66 1.32 1 2 C1.66 2.33 2.32 2.66 3 3 C1.35 3.66 -0.3 4.32 -2 5 C-2.99 4.01 -3.98 3.02 -5 2 C-3.35 1.34 -1.7 0.68 0 0 Z " fill="#20232D" transform="translate(651,634)"/>
<path d="M0 0 C2.9375 0.75 2.9375 0.75 6 2 C6.875 4.125 6.875 4.125 7 6 C2.32307692 4.52307692 2.32307692 4.52307692 0.6875 1.875 C0.460625 1.25625 0.23375 0.6375 0 0 Z " fill="#DFE2E3" transform="translate(672,632)"/>
<path d="M0 0 C0.99 0 1.98 0 3 0 C3.33 2.64 3.66 5.28 4 8 C3.01 7.67 2.02 7.34 1 7 C0.09162237 4.52260646 0 2.66420516 0 0 Z " fill="#D56CF6" transform="translate(314,616)"/>
<path d="M0 0 C1.32 0 2.64 0 4 0 C3.34 1.65 2.68 3.3 2 5 C0.35 4.67 -1.3 4.34 -3 4 C-2.34 3.67 -1.68 3.34 -1 3 C-0.67 2.01 -0.34 1.02 0 0 Z " fill="#1D232A" transform="translate(477,585)"/>
<path d="M0 0 C0.66 1.32 1.32 2.64 2 4 C0.02 4.33 -1.96 4.66 -4 5 C-4 3.68 -4 2.36 -4 1 C-2.68 0.67 -1.36 0.34 0 0 Z " fill="#171B28" transform="translate(562,569)"/>
<path d="M0 0 C0.99 0 1.98 0 3 0 C3.625 2.375 3.625 2.375 4 5 C3.34 5.66 2.68 6.32 2 7 C2 6.34 2 5.68 2 5 C1.34 5 0.68 5 0 5 C-0.5625 3.0625 -0.5625 3.0625 -1 1 C-0.67 0.67 -0.34 0.34 0 0 Z " fill="#1C2027" transform="translate(873,632)"/>
<path d="M0 0 C0 0.66 0 1.32 0 2 C-0.99 2 -1.98 2 -3 2 C-3.33 2.99 -3.66 3.98 -4 5 C-6.97 4.505 -6.97 4.505 -10 4 C-8.66666667 3.33333333 -7.33333333 2.66666667 -6 2 C-5.29875 1.62875 -4.5975 1.2575 -3.875 0.875 C-2 0 -2 0 0 0 Z " fill="#313438" transform="translate(834,634)"/>
<path d="M0 0 C1.32 0 2.64 0 4 0 C4 0.66 4 1.32 4 2 C4.66 2 5.32 2 6 2 C5.67 3.32 5.34 4.64 5 6 C3.31237149 4.3545622 1.6459651 2.68711423 0 1 C0 0.67 0 0.34 0 0 Z " fill="#7A57CF" transform="translate(289,627)"/>
<path d="M0 0 C0.33 0.99 0.66 1.98 1 3 C0.01 3.33 -0.98 3.66 -2 4 C-2.73323796 6.01508358 -2.73323796 6.01508358 -3 8 C-3.99 7.67 -4.98 7.34 -6 7 C-4.02 4.69 -2.04 2.38 0 0 Z " fill="#484B52" transform="translate(476,614)"/>
<path d="M0 0 C0.66 0.33 1.32 0.66 2 1 C2 5 2 5 1 7 C-0.32 6.67 -1.64 6.34 -3 6 C-2.01 4.02 -1.02 2.04 0 0 Z " fill="#E0E3E8" transform="translate(749,612)"/>
<path d="M0 0 C2.475 0.495 2.475 0.495 5 1 C4.34 2.65 3.68 4.3 3 6 C2.34 5.67 1.68 5.34 1 5 C0.375 2.4375 0.375 2.4375 0 0 Z " fill="#31353B" transform="translate(883,614)"/>
<path d="M0 0 C0.33 0 0.66 0 1 0 C1.33 3.63 1.66 7.26 2 11 C0.68 11.33 -0.64 11.66 -2 12 C-1.34 8.04 -0.68 4.08 0 0 Z " fill="#DADEE1" transform="translate(652,602)"/>
<path d="M0 0 C0.33 0.99 0.66 1.98 1 3 C1.66 3 2.32 3 3 3 C3 3.66 3 4.32 3 5 C3.66 5.33 4.32 5.66 5 6 C4.01 6 3.02 6 2 6 C2 6.66 2 7.32 2 8 C1.34 8 0.68 8 0 8 C0 5.36 0 2.72 0 0 Z " fill="#1D0E2A" transform="translate(320,578)"/>
<path d="M0 0 C1.32 0.66 2.64 1.32 4 2 C4 2.99 4 3.98 4 5 C2.68 5 1.36 5 0 5 C-0.5625 3.0625 -0.5625 3.0625 -1 1 C-0.67 0.67 -0.34 0.34 0 0 Z " fill="#E0B9E8" transform="translate(400,571)"/>
<path d="M0 0 C0.66 0.99 1.32 1.98 2 3 C1.360625 3.12375 0.72125 3.2475 0.0625 3.375 C-0.618125 3.58125 -1.29875 3.7875 -2 4 C-2.33 4.66 -2.66 5.32 -3 6 C-3 5.34 -3 4.68 -3 4 C-3.66 3.67 -4.32 3.34 -5 3 C-3.35 2.01 -1.7 1.02 0 0 Z " fill="#BE7BDA" transform="translate(297,566)"/>
<path d="M0 0 C1.32 0 2.64 0 4 0 C4 0.66 4 1.32 4 2 C4.66 2 5.32 2 6 2 C6 2.66 6 3.32 6 4 C6.99 4.33 7.98 4.66 9 5 C8.01 5.495 8.01 5.495 7 6 C5.83054208 5.19152271 4.66449539 4.37810888 3.5 3.5625 C2.8503125 3.11003906 2.200625 2.65757812 1.53125 2.19140625 C1.0259375 1.79824219 0.520625 1.40507813 0 1 C0 0.67 0 0.34 0 0 Z " fill="#774CDD" transform="translate(367,552)"/>
<path d="M0 0 C-2.31 1.32 -4.62 2.64 -7 4 C-7 2.68 -7 1.36 -7 0 C-3.86650268 -1.04449911 -3.01031744 -0.93423645 0 0 Z " fill="#AF6DCE" transform="translate(381,643)"/>
<path d="M0 0 C0.66 0.33 1.32 0.66 2 1 C0.37660195 2.70884005 -1.29319053 4.37446717 -3 6 C-3.66 6 -4.32 6 -5 6 C-5 5.34 -5 4.68 -5 4 C-5.66 3.67 -6.32 3.34 -7 3 C-5.5459375 2.5359375 -5.5459375 2.5359375 -4.0625 2.0625 C-1.15934208 1.30476658 -1.15934208 1.30476658 0 0 Z " fill="#1A152D" transform="translate(402,632)"/>
<path d="M0 0 C0.33 0 0.66 0 1 0 C1.125 4.75 1.125 4.75 0 7 C-0.99 6.67 -1.98 6.34 -3 6 C-1.125 1.125 -1.125 1.125 0 0 Z " fill="#18191C" transform="translate(749,629)"/>
<path d="M0 0 C0.99 0.33 1.98 0.66 3 1 C1.68 2.32 0.36 3.64 -1 5 C-1.99 4.67 -2.98 4.34 -4 4 C-3.34 3.67 -2.68 3.34 -2 3 C-2 2.34 -2 1.68 -2 1 C-1.34 0.67 -0.68 0.34 0 0 Z " fill="#252D32" transform="translate(741,619)"/>
<path d="M0 0 C0.33 0.99 0.66 1.98 1 3 C-1.475 4.485 -1.475 4.485 -4 6 C-4 4.35 -4 2.7 -4 1 C-2 0 -2 0 0 0 Z " fill="#21242D" transform="translate(645,617)"/>
<path d="M0 0 C0.66 0.33 1.32 0.66 2 1 C0.92598892 3.91517292 0.22189824 5.77810176 -2 8 C-2.33 7.01 -2.66 6.02 -3 5 C-1.5625 2.3125 -1.5625 2.3125 0 0 Z " fill="#26143F" transform="translate(350,601)"/>
<path d="M0 0 C2.13586678 3.20380017 2.23132175 4.01939967 2.125 7.6875 C2.10695313 8.49574219 2.08890625 9.30398438 2.0703125 10.13671875 C2.04710937 10.75160156 2.02390625 11.36648438 2 12 C1.34 11.67 0.68 11.34 0 11 C-0.99716532 7.01133873 -1.0502717 3.9676931 0 0 Z " fill="#CF69F4" transform="translate(291,594)"/>
<path d="M0 0 C2.475 0.99 2.475 0.99 5 2 C5 2.99 5 3.98 5 5 C3.68 5 2.36 5 1 5 C0.67 3.35 0.34 1.7 0 0 Z " fill="#2A113B" transform="translate(320,586)"/>
<path d="M0 0 C0 3 0 3 -1 5 C-0.34 5.33 0.32 5.66 1 6 C0.01 7.485 0.01 7.485 -1 9 C-2.1875 7.3125 -2.1875 7.3125 -3 5 C-1.625 2.25 -1.625 2.25 0 0 Z " fill="#1A1F27" transform="translate(902,571)"/>
<path d="M0 0 C0.66 0.66 1.32 1.32 2 2 C-2.625 4.125 -2.625 4.125 -6 3 C-6 2.34 -6 1.68 -6 1 C-3.125 0.375 -3.125 0.375 0 0 Z " fill="#22272E" transform="translate(540,571)"/>
</svg>
